<svg aria-hidden="true" style="position:absolute;width:0;height:0;overflow:hidden" xmlns="http://www.w3.org/2000/svg"><defs><symbol id="icon-build" viewBox="0 0 32 32"><path fill="#cae2ff" style="fill:var(--color1, #cae2ff)" d="M9.067.533v30.933h4.267v-7.467h5.333v7.467h4.267V.533H9.067zm8.533 3.2h2.133v2.133H17.6V3.733zM17.6 8h2.133v2.133H17.6V8zm0 4.267h2.133V14.4H17.6v-2.133zm0 4.266h2.133v2.133H17.6v-2.133zm-5.333-12.8H14.4v2.133h-2.133V3.733zm0 4.267H14.4v2.133h-2.133V8zm0 4.267H14.4V14.4h-2.133v-2.133zm0 4.266H14.4v2.133h-2.133v-2.133z"/><path fill="#cae2ff" style="fill:var(--color1, #cae2ff)" d="M22.933 9.067v22.4h2.421a4.437 4.437 0 0 1-.288-1.6c0-1.765.955-3.2 2.133-3.2s2.133 1.435 2.133 3.2a4.458 4.458 0 0 1-.288 1.6h2.421v-22.4h-8.533zm5.334 13.866h-2.133V20.8h2.133v2.133zm0-4.266h-2.133v-2.133h2.133v2.133zm0-4.267h-2.133v-2.133h2.133V14.4zM.533 9.067v21.867h8.533V9.067H.533zm3.2 19.2c-1.178 0-2.133-1.671-2.133-3.733s.955-3.733 2.133-3.733 2.133 1.671 2.133 3.733-.955 3.733-2.133 3.733zm2.134-9.6H3.734v-2.133h2.133v2.133zm0-4.267H3.734v-2.133h2.133V14.4z"/><path fill="#2054a2" style="fill:var(--color2, #2054a2)" d="M23.467 8.533V0H8.534v8.533H.001v12.8h1.067V9.6h7.467v21.333H4.268v-2.216c1.232-.385 2.133-2.084 2.133-4.184 0-2.392-1.173-4.267-2.667-4.267s-2.667 1.874-2.667 4.267c0 2.1.902 3.799 2.133 4.184v2.216H0V32h32V8.533h-8.533zm-21.334 16c0-1.886.843-3.2 1.6-3.2s1.6 1.314 1.6 3.2c0 1.886-.843 3.2-1.6 3.2s-1.6-1.314-1.6-3.2zm11.734 6.4v-6.4h4.267v6.4h-4.267zm8.533 0h-3.2v-7.467h-6.4v7.467H9.6V1.066h12.8v29.867zm3.2-1.066c0-1.445.733-2.667 1.6-2.667s1.6 1.221 1.6 2.667c0 .36-.047.719-.141 1.067h-2.918a4.087 4.087 0 0 1-.141-1.067zm5.333 1.066h-1.182c.075-.351.114-.708.115-1.067 0-2.093-1.173-3.733-2.667-3.733s-2.667 1.64-2.667 3.733c.001.359.04.716.115 1.067h-1.182V9.6h7.467v21.333z"/><path fill="#2054a2" style="fill:var(--color2, #2054a2)" d="M10.667 21.333h10.667V22.4H10.667v-1.067zM14.933 3.2h-3.2v3.2h3.2V3.2zm-1.066 2.133H12.8V4.266h1.067v1.067zM20.267 3.2h-3.2v3.2h3.2V3.2zM19.2 5.333h-1.067V4.266H19.2v1.067zM14.933 7.467h-3.2v3.2h3.2v-3.2zM13.867 9.6H12.8V8.533h1.067V9.6zM20.267 7.467h-3.2v3.2h3.2v-3.2zM19.2 9.6h-1.067V8.533H19.2V9.6zM14.933 11.733h-3.2v3.2h3.2v-3.2zm-1.066 2.134H12.8V12.8h1.067v1.067zM20.267 11.733h-3.2v3.2h3.2v-3.2zM19.2 13.867h-1.067V12.8H19.2v1.067zM14.933 16h-3.2v3.2h3.2V16zm-1.066 2.133H12.8v-1.067h1.067v1.067zM6.4 11.733H3.2v3.2h3.2v-3.2zm-1.067 2.134H4.266V12.8h1.067v1.067zM3.2 19.2h3.2V16H3.2v3.2zm1.067-2.133h1.067v1.067H4.267v-1.067zM20.267 16h-3.2v3.2h3.2V16zM19.2 18.133h-1.067v-1.067H19.2v1.067zM28.8 11.733h-3.2v3.2h3.2v-3.2zm-1.067 2.134h-1.067V12.8h1.067v1.067zM28.8 16h-3.2v3.2h3.2V16zm-1.067 2.133h-1.067v-1.067h1.067v1.067zM28.8 20.267h-3.2v3.2h3.2v-3.2zM27.733 22.4h-1.067v-1.067h1.067V22.4z"/></symbol><symbol id="icon-calc" viewBox="0 0 32 32"><path fill="#cae2ff" style="fill:var(--color1, #cae2ff)" d="M21.333 9.067h6.4l-6.4-6.4v6.4zM17.067 24.533a4.8 4.8 0 1 1-9.6 0 4.8 4.8 0 0 1 9.6 0zM1.6 17.6h11.733c.589 0 1.067-.478 1.067-1.067V1.6c0-.589-.478-1.067-1.067-1.067H1.6C1.011.533.533 1.011.533 1.6v14.933c0 .589.478 1.067 1.067 1.067zm3.2-2.133a.533.533 0 0 1-.533.533H3.2a.533.533 0 0 1-.533-.533V14.4c0-.295.239-.533.533-.533h1.067c.295 0 .533.239.533.533v1.067zm0-3.734a.533.533 0 0 1-.533.533H3.2a.533.533 0 0 1-.533-.533v-1.067c0-.295.239-.533.533-.533h1.067c.295 0 .533.239.533.533v1.067zM4.8 8a.533.533 0 0 1-.533.533H3.2A.533.533 0 0 1 2.667 8V6.933c0-.295.239-.533.533-.533h1.067c.295 0 .533.239.533.533V8zm3.733 7.467A.533.533 0 0 1 8 16H6.933a.533.533 0 0 1-.533-.533V14.4c0-.295.239-.533.533-.533H8c.295 0 .533.239.533.533v1.067zm0-3.734a.533.533 0 0 1-.533.533H6.933a.533.533 0 0 1-.533-.533v-1.067c0-.295.239-.533.533-.533H8c.295 0 .533.239.533.533v1.067zm0-3.733A.533.533 0 0 1 8 8.533H6.933A.533.533 0 0 1 6.4 8V6.933c0-.295.239-.533.533-.533H8c.295 0 .533.239.533.533V8zm3.734 7.467a.533.533 0 0 1-.533.533h-1.067a.533.533 0 0 1-.533-.533V14.4c0-.295.239-.533.533-.533h1.067c.295 0 .533.239.533.533v1.067zm0-3.734a.533.533 0 0 1-.533.533h-1.067a.533.533 0 0 1-.533-.533v-1.067c0-.295.239-.533.533-.533h1.067c.295 0 .533.239.533.533v1.067zm0-3.733a.533.533 0 0 1-.533.533h-1.067A.533.533 0 0 1 10.134 8V6.933c0-.295.239-.533.533-.533h1.067c.295 0 .533.239.533.533V8zM2.133 2.133H12.8V4.8H2.133V2.133zM31.139 18.903a1.066 1.066 0 1 0-1.509-1.509l-.754.754 1.509 1.509.754-.754zM21.996 28.046l8.388-8.388-1.509-1.509-8.388 8.388-1.288 2.796 2.796-1.288zm7.262-7.262z"/><path fill="#2054a2" style="fill:var(--color2, #2054a2)" d="M12.267 19.2a5.333 5.333 0 1 0 0 10.666 5.333 5.333 0 0 0 0-10.666zm0 9.6a4.267 4.267 0 1 1 4.267-4.267 4.273 4.273 0 0 1-4.267 4.267z"/><path fill="#2054a2" style="fill:var(--color2, #2054a2)" d="M27.2 30.933H4.8v-12.8h8.533a1.6 1.6 0 0 0 1.6-1.6V3.2H20.8v6.4h6.4v7.467h1.067V8.846l-6.712-6.713h-6.621V1.6a1.6 1.6 0 0 0-1.6-1.6H1.601a1.6 1.6 0 0 0-1.6 1.6v14.933a1.6 1.6 0 0 0 1.6 1.6h2.133V32h24.533v-7.467H27.2v6.4zM21.867 3.954l4.579 4.579h-4.579V3.954zm-20.8 12.579V1.6c0-.295.239-.533.533-.533h11.733c.295 0 .533.239.533.533v14.933a.533.533 0 0 1-.533.533H1.6a.533.533 0 0 1-.533-.533z"/><path fill="#2054a2" style="fill:var(--color2, #2054a2)" d="M17.067 13.333h1.067V14.4h-1.067v-1.067zM19.2 13.333h6.4V14.4h-6.4v-1.067zM17.067 11.2h1.067v1.067h-1.067V11.2zM19.2 11.2h6.4v1.067h-6.4V11.2zM17.067 15.467h1.067v1.067h-1.067v-1.067zM19.2 15.467h6.4v1.067h-6.4v-1.067zM17.067 17.6h1.067v1.067h-1.067V17.6zM19.2 17.6h6.4v1.067h-6.4V17.6zM13.333 1.6H1.6v3.733h11.733V1.6zm-1.066 2.667h-9.6v-1.6h9.6v1.6zM4.267 5.867H3.2c-.589 0-1.067.478-1.067 1.067v1.067c0 .589.478 1.067 1.067 1.067h1.067c.589 0 1.067-.478 1.067-1.067V6.934c0-.589-.478-1.067-1.067-1.067zM3.2 8V6.933h1.067V8H3.2zM8 5.867H6.933c-.589 0-1.067.478-1.067 1.067v1.067c0 .589.478 1.067 1.067 1.067H8c.589 0 1.067-.478 1.067-1.067V6.934c0-.589-.478-1.067-1.067-1.067zM6.933 8V6.933H8V8H6.933zM11.733 5.867h-1.067c-.589 0-1.067.478-1.067 1.067v1.067c0 .589.478 1.067 1.067 1.067h1.067c.589 0 1.067-.478 1.067-1.067V6.934c0-.589-.478-1.067-1.067-1.067zM10.667 8V6.933h1.067V8h-1.067zM4.267 9.6H3.2c-.589 0-1.067.478-1.067 1.067v1.067c0 .589.478 1.067 1.067 1.067h1.067c.589 0 1.067-.478 1.067-1.067v-1.067c0-.589-.478-1.067-1.067-1.067zM3.2 11.733v-1.067h1.067v1.067H3.2zM8 9.6H6.933c-.589 0-1.067.478-1.067 1.067v1.067c0 .589.478 1.067 1.067 1.067H8c.589 0 1.067-.478 1.067-1.067v-1.067C9.067 10.078 8.589 9.6 8 9.6zm-1.067 2.133v-1.067H8v1.067H6.933zM11.733 9.6h-1.067c-.589 0-1.067.478-1.067 1.067v1.067c0 .589.478 1.067 1.067 1.067h1.067c.589 0 1.067-.478 1.067-1.067v-1.067c0-.589-.478-1.067-1.067-1.067zm-1.066 2.133v-1.067h1.067v1.067h-1.067zM4.267 13.333H3.2c-.589 0-1.067.478-1.067 1.067v1.067c0 .589.478 1.067 1.067 1.067h1.067c.589 0 1.067-.478 1.067-1.067V14.4c0-.589-.478-1.067-1.067-1.067zM3.2 15.467V14.4h1.067v1.067H3.2zM8 13.333H6.933c-.589 0-1.067.478-1.067 1.067v1.067c0 .589.478 1.067 1.067 1.067H8c.589 0 1.067-.478 1.067-1.067V14.4c0-.589-.478-1.067-1.067-1.067zm-1.067 2.134V14.4H8v1.067H6.933zM11.733 13.333h-1.067c-.589 0-1.067.478-1.067 1.067v1.067c0 .589.478 1.067 1.067 1.067h1.067c.589 0 1.067-.478 1.067-1.067V14.4c0-.589-.478-1.067-1.067-1.067zm-1.066 2.134V14.4h1.067v1.067h-1.067zM31.516 17.018a1.638 1.638 0 0 0-2.262 0l-9.143 9.143a.567.567 0 0 0-.107.154l-1.288 2.796a.532.532 0 0 0 .707.707l2.796-1.288a.526.526 0 0 0 .154-.107l9.142-9.143a1.6 1.6 0 0 0 0-2.263zm-9.83 10.583-1.397.644.644-1.397 6.817-6.817.754.754-6.817 6.817zm7.573-7.573-.754-.754.373-.373.754.754-.373.373zm1.504-1.504-.377.377-.754-.754.378-.377a.545.545 0 0 1 .754 0 .534.534 0 0 1 0 .754z"/><path fill="#275ba8" style="fill:var(--color3, #275ba8)" d="M11.802 26.301h1.103v-.839h-1.103V25.2h.905c.603 0 1.074-.144 1.412-.432.34-.288.51-.68.51-1.178 0-.322-.08-.609-.239-.86-.157-.253-.379-.448-.666-.584s-.62-.204-.999-.204h-1.963v2.418h-.704v.839h.704v.262h-.704v.839h.704v.67h1.041v-.67zm.898-1.941h-.898v-1.575h.936c.261.002.466.078.614.228.148.147.222.342.222.584 0 .509-.291.763-.874.763z"/></symbol><symbol id="icon-credit" viewBox="0 0 32 32"><path fill="#cae2ff" style="fill:var(--color1, #cae2ff)" d="M31.467 10.133V7.466a6.9 6.9 0 0 1-.533 2.667h.533zM6.4 7.467a.533.533 0 1 1-1.066 0 .533.533 0 0 1 1.066 0z"/><path fill="#cae2ff" style="fill:var(--color1, #cae2ff)" d="M17.6 7.467c0 .915.181 1.822.533 2.667H.533V5.867A1.07 1.07 0 0 1 1.6 4.8h16.533a6.934 6.934 0 0 0-.533 2.667z"/><path fill="#cae2ff" style="fill:var(--color1, #cae2ff)" d="M9.067 7.467a.533.533 0 1 1-1.066 0 .533.533 0 0 1 1.066 0zM3.733 7.467a.533.533 0 1 1-1.066 0 .533.533 0 0 1 1.066 0zM17.6 20.8c0-.589-.478-1.067-1.067-1.067H1.6c-.589 0-1.067.478-1.067 1.067v1.067H17.6V20.8zM.533 24v6.4c0 .589.478 1.067 1.067 1.067h14.933c.589 0 1.067-.478 1.067-1.067V24H.533zm12.8 5.867a1.6 1.6 0 0 1-1.6-1.6 1.6 1.6 0 1 1-3.2 0 1.6 1.6 0 0 1 3.2 0 1.6 1.6 0 1 1 1.6 1.6z"/><path fill="#cae2ff" style="fill:var(--color1, #cae2ff)" d="M11.733 28.267a1.6 1.6 0 1 1-3.2 0 1.6 1.6 0 0 1 3.2 0z"/><path fill="#cae2ff" style="fill:var(--color1, #cae2ff)" d="M14.933 28.267a1.6 1.6 0 1 1-3.2 0 1.6 1.6 0 0 1 3.2 0zM24.533.533a6.933 6.933 0 1 0 0 13.866 6.933 6.933 0 0 0 0-13.866zM21.333 18.667a.533.533 0 1 1-1.066 0 .533.533 0 0 1 1.066 0zM21.333 21.867a.533.533 0 1 1-1.066 0 .533.533 0 0 1 1.066 0zM21.333 25.067a.533.533 0 1 1-1.066 0 .533.533 0 0 1 1.066 0z"/><path fill="#2054a2" style="fill:var(--color2, #2054a2)" d="M4.267 7.467a1.067 1.067 0 1 1-2.135 0 1.067 1.067 0 0 1 2.135 0zM6.933 7.467a1.067 1.067 0 1 1-2.135 0 1.067 1.067 0 0 1 2.135 0zM9.6 7.467a1.067 1.067 0 1 1-2.135 0 1.067 1.067 0 0 1 2.135 0zM16.533 19.2H1.6A1.6 1.6 0 0 0 0 20.8v9.6A1.6 1.6 0 0 0 1.6 32h14.933a1.6 1.6 0 0 0 1.6-1.6v-9.6a1.6 1.6 0 0 0-1.6-1.6zM1.067 22.4h16v1.067h-16V22.4zm16 8a.533.533 0 0 1-.533.533H1.601a.533.533 0 0 1-.533-.533v-5.867h16V30.4zm-16-9.067V20.8c0-.295.239-.533.533-.533h14.933c.295 0 .533.239.533.533v.533h-16z"/><path fill="#2054a2" style="fill:var(--color2, #2054a2)" d="M10.133 30.4a2.12 2.12 0 0 0 1.6-.737 2.134 2.134 0 0 0 3.746-1.396 2.134 2.134 0 0 0-3.746-1.396 2.13 2.13 0 1 0-1.6 3.529zm3.2-3.2a1.067 1.067 0 1 1 0 2.135 1.067 1.067 0 0 1 0-2.135zm-3.2 0a1.067 1.067 0 1 1 0 2.135 1.067 1.067 0 0 1 0-2.135zM2.133 28.267H6.4v1.067H2.133v-1.067z"/><path fill="#2054a2" style="fill:var(--color2, #2054a2)" d="M24.533 0a7.465 7.465 0 0 0-6.736 4.267H1.6a1.6 1.6 0 0 0-1.6 1.6v12.8h1.067v-8h16.731a7.45 7.45 0 0 0 13.136.626v16.974a.533.533 0 0 1-.533.533h-11.2v1.067h11.2a1.6 1.6 0 0 0 1.6-1.6v-20.8A7.475 7.475 0 0 0 24.534 0zM1.067 9.6V5.867c0-.295.239-.533.533-.533h15.781a7.383 7.383 0 0 0 0 4.267H1.066zm23.466 4.267c-3.535 0-6.4-2.865-6.4-6.4s2.865-6.4 6.4-6.4a6.4 6.4 0 1 1 0 12.8z"/><path fill="#2054a2" style="fill:var(--color2, #2054a2)" d="m28.59 4.255-5.657 5.657-2.64-2.64-.754.754 3.394 3.394 6.411-6.411-.755-.755zM22.933 18.133h6.4V19.2h-6.4v-1.067zM21.867 18.667a1.067 1.067 0 1 1-2.135 0 1.067 1.067 0 0 1 2.135 0zM22.933 21.333h6.4V22.4h-6.4v-1.067zM21.867 21.867a1.067 1.067 0 1 1-2.135 0 1.067 1.067 0 0 1 2.135 0zM22.933 24.533h6.4V25.6h-6.4v-1.067zM21.867 25.067a1.067 1.067 0 1 1-2.135 0 1.067 1.067 0 0 1 2.135 0zM3.733 13.333H4.8V14.4H3.733v-1.067zM5.867 13.333h9.6V14.4h-9.6v-1.067zM3.733 15.467h11.733v1.067H3.733v-1.067z"/></symbol><symbol id="icon-home" viewBox="0 0 32 32"><path fill="#cae2ff" style="fill:var(--color1, #cae2ff)" d="M5.867 17.946v.08l4.8-2.56-4.8 2.479zM10.667 15.467l4.267 2.276v-.072l-4.267-2.204z"/><path fill="#cae2ff" style="fill:var(--color1, #cae2ff)" d="m14.933 17.742 1.733.924h.195l-1.929-.996v.072z"/><path fill="#cae2ff" style="fill:var(--color1, #cae2ff)" d="m16.667 18.667-6-3.2-8 4.267v9.067H4.8v-7.467H8v7.467h10.667v-9.067l-2-1.067zm-7.067 0a1.067 1.067 0 1 1 2.135 0 1.067 1.067 0 0 1-2.135 0zm6.933 6.933h-6.4v-3.2h6.4v3.2z"/><path fill="#275ba8" style="fill:var(--color3, #275ba8)" d="M29.867 29.333H28.8V3.2H14.4V2.133h15.467v27.2z"/><path fill="#275ba8" style="fill:var(--color3, #275ba8)" d="M32 27.2h-1.067V1.067h-14.4V0H32v27.2z"/><path fill="#275ba8" style="fill:var(--color3, #275ba8)" d="M12.046 4.267 5.333 10.98v3.954H6.4v-3.2h6.4v-6.4h13.867v25.6H6.4v-1.067H5.333V32h22.4V4.267H12.045zm-4.892 6.4 4.579-4.579v4.579H7.154z"/><path fill="#275ba8" style="fill:var(--color3, #275ba8)" d="M19.2 29.333v-8.864a1.444 1.444 0 0 0 2.133-1.28 1.467 1.467 0 0 0-.738-1.263l-9.929-5.195-9.952 5.21a1.458 1.458 0 0 0-.715 1.25v.005a1.435 1.435 0 0 0 .73 1.259c.221.128.472.195.727.196a1.38 1.38 0 0 0 .676-.179v8.861h17.067zM1.26 19.529a.374.374 0 0 1-.193-.333v-.005a.379.379 0 0 1 .166-.32l9.434-4.935 9.411 4.924c.119.071.19.199.189.337a.374.374 0 0 1-.193.333.395.395 0 0 1-.411-.016l-8.996-4.647-9.021 4.661a.374.374 0 0 1-.386.002zm1.94 8.738v-8.343l7.467-3.857 7.467 3.856v8.343h-9.6v-7.467H4.267v7.467H3.2zm2.133 0v-6.4h2.133v6.4H5.333z"/><path fill="#275ba8" style="fill:var(--color3, #275ba8)" d="M10.667 20.267a1.6 1.6 0 1 0 0-3.2 1.6 1.6 0 0 0 0 3.2zm0-2.134a.533.533 0 1 1 0 1.066.533.533 0 0 1 0-1.066zM9.6 26.133h7.467v-4.267H9.6v4.267zm1.067-3.2H16v2.133h-5.333v-2.133zM14.933 8.533H16V9.6h-1.067V8.533zM17.067 8.533h7.467V9.6h-7.467V8.533zM14.933 10.667H16v1.067h-1.067v-1.067zM17.067 10.667h7.467v1.067h-7.467v-1.067zM14.933 13.867h8.533v4.267h-1.067v1.067h2.133v-6.4h-9.6v1.067zM22.4 20.267h2.133v1.067H22.4v-1.067z"/></symbol><symbol id="icon-like" viewBox="0 0 32 32"><path fill="#cae2ff" style="fill:var(--color1, #cae2ff)" d="M24.2 6.414h4l-5-5v4a.997.997 0 0 0 1 1zM7.7 28.414v-8.5h-4v8.5h4z"/><path fill="#275ba8" style="fill:var(--color3, #275ba8)" d="m28.555 6.059-5-5A.516.516 0 0 0 23.2.914h-17a.498.498 0 0 0-.5.5v18h-2a.498.498 0 0 0-.5.5v8.5a.498.498 0 0 0 .5.5h2v1.5a.498.498 0 0 0 .5.5h22a.498.498 0 0 0 .5-.5v-24a.516.516 0 0 0-.145-.355zM23.7 2.619l3.295 3.295H24.2a.498.498 0 0 1-.5-.5V2.619zM4.2 27.914v-7.5h3v7.5h-3zm23.5 2h-21v-1h1a.5.5 0 0 0 .499-.5v-.145c.877.426 1.84.646 2.815.645h5.685a1.494 1.494 0 0 0 1.296-.742 1.49 1.49 0 0 0 .009-1.493 1.38 1.38 0 0 0 .25-.2 1.504 1.504 0 0 0 .445-1.065 1.47 1.47 0 0 0-.195-.735 1.38 1.38 0 0 0 .25-.2 1.504 1.504 0 0 0 .445-1.065 1.47 1.47 0 0 0-.195-.735 1.506 1.506 0 0 0 .69-1.395 1.533 1.533 0 0 0-1.55-1.37h-4.445v-2.5a1.502 1.502 0 0 0-1.5-1.5h-1a.498.498 0 0 0-.5.5v1.5a2.483 2.483 0 0 1-.732 1.768 2.51 2.51 0 0 1-1.768.732v-.5a.498.498 0 0 0-.5-.5h-1v-17.5h16v3.5a1.504 1.504 0 0 0 1.5 1.5h3.5v23zm-14.5-9h4.945a.545.545 0 0 1 .555.455.493.493 0 0 1-.155.4.462.462 0 0 1-.345.145h-.5a.498.498 0 0 0-.5.5.498.498 0 0 0 .5.5.498.498 0 0 1 .46.694.485.485 0 0 1-.115.161.462.462 0 0 1-.345.145h-.5a.498.498 0 0 0-.5.5.498.498 0 0 0 .5.5.498.498 0 0 1 .46.694.485.485 0 0 1-.115.161.462.462 0 0 1-.345.145h-.5a.498.498 0 0 0-.5.5.498.498 0 0 0 .5.5.498.498 0 0 1 .46.694.485.485 0 0 1-.115.161.462.462 0 0 1-.345.145h-5.685a5.463 5.463 0 0 1-2.815-.775v-5.725a3.504 3.504 0 0 0 3.5-3.5v-1h.5a.498.498 0 0 1 .5.5v3a.498.498 0 0 0 .5.5z"/><path fill="#275ba8" style="fill:var(--color3, #275ba8)" d="M13.2 4.914h8a.498.498 0 0 0 .5-.5.5.5 0 0 0-.5-.5h-8a.498.498 0 0 0-.5.5.498.498 0 0 0 .5.5zM26.2 25.914h-6a.498.498 0 0 0-.5.5.498.498 0 0 0 .5.5h6a.498.498 0 0 0 .5-.5.498.498 0 0 0-.5-.5zM25.2 15.914h-10a.498.498 0 0 0-.5.5.498.498 0 0 0 .5.5h10a.498.498 0 0 0 .5-.5.498.498 0 0 0-.5-.5zM25.7 18.414a.498.498 0 0 0-.5-.5h-10a.498.498 0 0 0-.5.5.498.498 0 0 0 .5.5h10a.498.498 0 0 0 .5-.5zM9.2 8.914h16a.498.498 0 0 0 .5-.5.498.498 0 0 0-.5-.5h-16a.498.498 0 0 0-.5.5.498.498 0 0 0 .5.5zM9.2 10.914h16a.498.498 0 0 0 .5-.5.498.498 0 0 0-.5-.5h-16a.498.498 0 0 0-.5.5.498.498 0 0 0 .5.5zM9.2 12.914h16a.498.498 0 0 0 .5-.5.498.498 0 0 0-.5-.5h-16a.498.498 0 0 0-.5.5.498.498 0 0 0 .5.5zM25.7 14.414a.498.498 0 0 0-.5-.5h-16a.498.498 0 0 0-.5.5.498.498 0 0 0 .5.5h16a.498.498 0 0 0 .5-.5zM26.2 24.414h-.293l-.854-.854a.499.499 0 0 0-.8.13l-.363.723h-.5a1.49 1.49 0 0 0 .309-.914v-.128a1.455 1.455 0 0 0-1.069-1.404 1.46 1.46 0 0 0-1.639.655l-1.22 2.035a.507.507 0 0 0-.063.382.496.496 0 0 0 .415.378.503.503 0 0 0 .504-.245l1.221-2.036a.458.458 0 0 1 .851.236v.128a.506.506 0 0 1-.146.354l-.707.707a.505.505 0 0 0-.109.545.503.503 0 0 0 .462.308h2a.498.498 0 0 0 .451-.277l.189-.38.51.51a.497.497 0 0 0 .351.146h.5a.498.498 0 0 0 .5-.5.498.498 0 0 0-.5-.5z"/></symbol><symbol id="icon-monitor" viewBox="0 0 32 32"><path fill="#cae2ff" style="fill:var(--color1, #cae2ff)" d="M11.733.533v6.4h-6.4v12.8h21.333V.533H11.733zM23.467 14.4H8.534V9.067h14.933V14.4zM5.333 19.733h-4.8v3.2c0 1.178.955 2.133 2.133 2.133h26.667a2.133 2.133 0 0 0 2.133-2.133v-3.2H5.333zM16 23.467a1.067 1.067 0 1 1 0-2.135 1.067 1.067 0 0 1 0 2.135zM12.267 25.067h7.467v3.2h-7.467v-3.2z"/><path fill="#cae2ff" style="fill:var(--color1, #cae2ff)" d="M8.533 28.267h14.933c.589 0 1.067.478 1.067 1.067v2.667H7.466v-2.667c0-.589.478-1.067 1.067-1.067z"/><path fill="#275ba8" style="fill:var(--color3, #275ba8)" d="M13.333 4.267H14.4v1.067h-1.067V4.267zM15.467 4.267H24v1.067h-8.533V4.267zM13.333 6.4H14.4v1.067h-1.067V6.4zM15.467 6.4H24v1.067h-8.533V6.4zM8 14.933h16v-6.4H8v6.4zM9.067 9.6h13.867v4.267H9.067V9.6z"/><path fill="#275ba8" style="fill:var(--color3, #275ba8)" d="M29.333 3.2h-1.067v1.067h1.067a1.6 1.6 0 0 1 1.6 1.6V19.2H27.2V0H11.512L4.799 6.713v12.488H1.066V5.868a1.6 1.6 0 0 1 1.6-1.6h3.733V3.201H2.666A2.67 2.67 0 0 0-.001 5.868v17.067a2.67 2.67 0 0 0 2.667 2.667h9.067v2.133h-3.2a1.6 1.6 0 0 0-1.6 1.6v2.667h18.133v-2.667a1.6 1.6 0 0 0-1.6-1.6h-1.067v1.067h1.067c.295 0 .533.239.533.533v1.6h-16v-1.6c0-.295.239-.533.533-.533h12.8v-1.067h-1.067v-2.133h9.067a2.67 2.67 0 0 0 2.667-2.667V5.868a2.67 2.67 0 0 0-2.667-2.667zM11.2 1.821V6.4H6.621L11.2 1.821zM5.867 7.467h6.4v-6.4h13.867V19.2H5.867V7.467zM19.2 27.733h-6.4V25.6h6.4v2.133zm10.133-3.2H2.666a1.6 1.6 0 0 1-1.6-1.6v-2.667h29.867v2.667a1.6 1.6 0 0 1-1.6 1.6z"/><path fill="#275ba8" style="fill:var(--color3, #275ba8)" d="M16 20.8a1.6 1.6 0 1 0 0 3.2 1.6 1.6 0 0 0 0-3.2zm0 2.133a.533.533 0 1 1 0-1.066.533.533 0 0 1 0 1.066zM8 16h1.067v1.067H8V16zM10.133 16H24v1.067H10.133V16z"/></symbol></defs></svg>