<svg aria-hidden="true" style="position:absolute;width:0;height:0;overflow:hidden" xmlns="http://www.w3.org/2000/svg"><defs><symbol id="icon-eye" viewBox="0 0 32 32"><path fill="none" stroke="#d5deec" stroke-width="3.048" stroke-linecap="round" stroke-linejoin="round" style="stroke:var(--color1, #d5deec)" d="M1.333 16S6.666 5.333 16 5.333 30.667 16 30.667 16 25.334 26.667 16 26.667 1.333 16 1.333 16z"/><path fill="none" stroke="#d5deec" stroke-width="3.048" stroke-linecap="round" stroke-linejoin="round" style="stroke:var(--color1, #d5deec)" d="M16 20a4 4 0 1 0 0-8 4 4 0 0 0 0 8z"/></symbol><symbol id="icon-angle" viewBox="0 0 32 32"><path fill="none" stroke="#d5deec" stroke-width="5.818" stroke-linecap="round" stroke-linejoin="round" style="stroke:var(--color1, #d5deec)" d="M3.273 3.273h25.455v25.455"/></symbol><symbol id="icon-mail" viewBox="0 0 32 32"><path fill="#275ba8" style="fill:var(--color2, #275ba8)" d="M19.111 15.238h3.765a1.562 1.562 0 0 0 1.104-.451l7.124-7.124a1.563 1.563 0 0 0 .461-1.104 1.554 1.554 0 0 0-.461-1.104L27.34 1.691a1.563 1.563 0 0 0-1.104-.461 1.554 1.554 0 0 0-1.104.461l-7.124 7.124a1.636 1.636 0 0 0-.451 1.104v3.764a1.555 1.555 0 0 0 1.556 1.556zm1.556-4.667 5.569-5.569 1.555 1.556-5.569 5.569h-1.556v-1.556zM30 13.682a1.555 1.555 0 0 0-1.556 1.556v10.889a1.555 1.555 0 0 1-1.556 1.556H5.11a1.555 1.555 0 0 1-1.556-1.556V11.178l9.147 9.162a4.656 4.656 0 0 0 3.321 1.388 4.673 4.673 0 0 0 3.321-1.388 1.557 1.557 0 1 0-2.224-2.178 1.557 1.557 0 0 1-2.178 0L5.748 8.984h7.14a1.555 1.555 0 0 0 1.1-2.656 1.555 1.555 0 0 0-1.1-.456H5.11a4.667 4.667 0 0 0-4.667 4.667v15.556a4.667 4.667 0 0 0 4.667 4.667h21.778a4.667 4.667 0 0 0 4.667-4.667V15.206a1.555 1.555 0 0 0-1.556-1.556v.031z"/></symbol><symbol id="icon-login" viewBox="0 0 32 32"><path fill="#275ba8" style="fill:var(--color2, #275ba8)" d="M16 .445A15.561 15.561 0 0 0 1.784 9.753a15.554 15.554 0 0 0 2.783 16.763A15.566 15.566 0 0 0 16 31.524a15.556 15.556 0 0 0 11.433-5.008 15.552 15.552 0 0 0 2.783-16.763A15.561 15.561 0 0 0 16 .445zm0 28a12.447 12.447 0 0 1-8.633-3.5 9.339 9.339 0 0 1 13.831-4.206 9.34 9.34 0 0 1 3.437 4.206 12.447 12.447 0 0 1-8.633 3.5zm-3.111-15.556a3.107 3.107 0 0 1 1.92-2.874 3.114 3.114 0 0 1 3.39.674 3.109 3.109 0 0 1-.472 4.786 3.11 3.11 0 0 1-4.839-2.587zm13.86 9.333a12.45 12.45 0 0 0-6.082-5.258 6.222 6.222 0 1 0-9.334 0 12.446 12.446 0 0 0-6.082 5.258A12.32 12.32 0 0 1 3.555 16a12.446 12.446 0 0 1 24.89 0 12.326 12.326 0 0 1-1.695 6.222z"/></symbol><symbol id="icon-logo" viewBox="0 0 71 32"><path fill="#275ba8" style="fill:var(--color2, #275ba8)" d="M25.923.518v31.077l-.37-.04c2.044.27 4.115.455 6.369.558V20.834l9.32 11.154a70.703 70.703 0 0 0 7.111-.863L35.227 15.454 47.476.849a68.367 68.367 0 0 0-7.174-.784l-8.38 10.009V.003a72.877 72.877 0 0 0-5.999.518zm25.874 12.346h11.89c-2.96-3.091-10.103-5.522-19.125-6.51l4.292-5.271c13.048 2.401 22.258 8.189 22.258 14.966 0 6.636-8.802 12.331-21.397 14.809L45.47 25.65c8.959-1.082 15.93-3.624 18.561-6.793H51.798v-5.993zM24.701 31.423V25.54c-10.98-1.491-18.749-5.177-18.749-9.491 0-4.299 7.77-7.984 18.749-9.476V.691C10.369 2.762 0 8.864 0 16.048c0 7.201 10.369 13.303 24.701 15.375z"/></symbol></defs></svg>