<svg aria-hidden="true" style="position: absolute; width: 0; height: 0; overflow: hidden;" version="1.1" xmlns="http://www.w3.org/2000/svg" xmlns:xlink="http://www.w3.org/1999/xlink">
<defs>
<symbol id="icon-search" viewBox="0 0 34 32">
<path fill="#fff" style="fill: var(--color1, #fff)" d="M31.993 28.896l-5.771-5.724c1.918-2.376 3.079-5.432 3.079-8.759 0-7.732-6.268-14-14-14s-14 6.268-14 14c0 7.732 6.268 14 14 14 3.327 0 6.384-1.161 8.786-3.1l-0.027 0.021 5.724 5.724c0.282 0.284 0.672 0.46 1.104 0.46s0.822-0.176 1.104-0.46l0-0c0.27-0.279 0.437-0.661 0.437-1.081s-0.167-0.801-0.437-1.081l0 0zM15.333 25.333c-6.013 0-10.888-4.875-10.888-10.888s4.875-10.888 10.888-10.888v0c6.013 0 10.888 4.875 10.888 10.888s-4.875 10.888-10.888 10.888v0z"></path>
</symbol>
<symbol id="icon-arrow" viewBox="0 0 32 32">
<path fill="none" stroke="#d5deec" stroke-width="3.0476" stroke-miterlimit="4" stroke-linecap="round" stroke-linejoin="round" style="stroke: var(--color2, #d5deec)" d="M9.333 22.667l13.333-13.333M9.333 9.333h13.333v13.333"></path>
</symbol>
<symbol id="icon-eye" viewBox="0 0 32 32">
<path fill="none" stroke="#d5deec" stroke-width="3.0476" stroke-miterlimit="4" stroke-linecap="round" stroke-linejoin="round" style="stroke: var(--color2, #d5deec)" d="M1.333 16c0 0 5.333-10.667 14.667-10.667s14.667 10.667 14.667 10.667c0 0-5.333 10.667-14.667 10.667s-14.667-10.667-14.667-10.667z"></path>
<path fill="none" stroke="#d5deec" stroke-width="3.0476" stroke-miterlimit="4" stroke-linecap="round" stroke-linejoin="round" style="stroke: var(--color2, #d5deec)" d="M16 20c2.209 0 4-1.791 4-4s-1.791-4-4-4c-2.209 0-4 1.791-4 4s1.791 4 4 4z"></path>
</symbol>
<symbol id="icon-mail" viewBox="0 0 32 32">
<path fill="#275ba8" style="fill: var(--color3, #275ba8)" d="M19.111 15.238h3.765c0.205 0.001 0.408-0.038 0.597-0.115s0.362-0.191 0.507-0.336l7.124-7.124c0.146-0.145 0.262-0.317 0.341-0.506s0.12-0.393 0.12-0.598c0-0.205-0.041-0.409-0.12-0.598s-0.195-0.362-0.341-0.506l-3.764-3.764c-0.145-0.146-0.317-0.262-0.506-0.341s-0.393-0.12-0.598-0.12-0.409 0.041-0.598 0.12c-0.19 0.079-0.362 0.195-0.506 0.341l-7.124 7.124c-0.284 0.298-0.445 0.693-0.451 1.104v3.764c0 0.413 0.164 0.808 0.456 1.1s0.687 0.456 1.1 0.456zM20.667 10.571l5.569-5.569 1.555 1.556-5.569 5.569h-1.556v-1.556zM30 13.682c-0.413 0-0.808 0.164-1.1 0.456s-0.456 0.687-0.456 1.1v10.889c0 0.413-0.164 0.808-0.456 1.1s-0.687 0.456-1.1 0.456h-21.778c-0.413 0-0.808-0.164-1.1-0.456s-0.456-0.687-0.456-1.1v-14.949l9.147 9.162c0.434 0.44 0.951 0.789 1.521 1.027s1.182 0.361 1.8 0.361 1.23-0.123 1.8-0.361c0.57-0.238 1.087-0.587 1.521-1.027 0.285-0.291 0.445-0.682 0.445-1.089s-0.16-0.798-0.445-1.089c-0.145-0.148-0.318-0.266-0.509-0.346s-0.396-0.122-0.603-0.122-0.412 0.041-0.603 0.122c-0.191 0.080-0.364 0.198-0.509 0.346-0.291 0.285-0.682 0.445-1.089 0.445s-0.798-0.16-1.089-0.445l-9.193-9.178h7.14c0.413 0 0.808-0.164 1.1-0.456s0.456-0.687 0.456-1.1c0-0.413-0.164-0.808-0.456-1.1s-0.687-0.456-1.1-0.456h-7.778c-1.238 0-2.425 0.492-3.3 1.367s-1.367 2.062-1.367 3.3v15.556c0 1.238 0.492 2.425 1.367 3.3s2.062 1.367 3.3 1.367h21.778c1.238 0 2.425-0.492 3.3-1.367s1.367-2.062 1.367-3.3v-10.889c0-0.413-0.164-0.808-0.456-1.1s-0.687-0.456-1.1-0.456v0.031z"></path>
</symbol>
<symbol id="icon-login" viewBox="0 0 32 32">
<path fill="#275ba8" style="fill: var(--color3, #275ba8)" d="M16 0.445c-3.017 0.006-5.967 0.889-8.491 2.541s-4.513 4.004-5.725 6.767c-1.212 2.763-1.594 5.819-1.1 8.795s1.843 5.745 3.883 7.968c1.457 1.579 3.225 2.839 5.192 3.701s4.093 1.307 6.241 1.307 4.273-0.445 6.241-1.307c1.968-0.862 3.736-2.122 5.192-3.701 2.040-2.223 3.389-4.992 3.883-7.968s0.112-6.032-1.1-8.795c-1.212-2.763-3.201-5.114-5.725-6.767s-5.474-2.536-8.491-2.541zM16 28.445c-3.222-0.005-6.317-1.26-8.633-3.5 0.703-1.712 1.899-3.176 3.437-4.206s3.346-1.581 5.197-1.581c1.851 0 3.659 0.55 5.197 1.581s2.733 2.495 3.437 4.206c-2.316 2.24-5.411 3.495-8.633 3.5zM12.889 12.889c0-0.615 0.182-1.217 0.524-1.728s0.828-0.91 1.396-1.146c0.568-0.235 1.194-0.297 1.797-0.177s1.158 0.416 1.593 0.851c0.435 0.435 0.731 0.989 0.851 1.593s0.058 1.229-0.177 1.797c-0.235 0.569-0.634 1.054-1.146 1.396s-1.113 0.524-1.728 0.524c-0.825 0-1.616-0.328-2.2-0.911s-0.911-1.375-0.911-2.2zM26.749 22.222c-1.39-2.377-3.529-4.226-6.082-5.258 0.792-0.898 1.308-2.006 1.486-3.19s0.011-2.394-0.482-3.486-1.29-2.017-2.296-2.667c-1.006-0.65-2.178-0.995-3.375-0.995s-2.369 0.346-3.375 0.995c-1.006 0.65-1.803 1.576-2.296 2.667s-0.66 2.302-0.482 3.486c0.178 1.184 0.694 2.292 1.486 3.19-2.553 1.031-4.692 2.881-6.082 5.258-1.108-1.887-1.693-4.034-1.696-6.222 0-3.3 1.311-6.466 3.645-8.8s5.499-3.645 8.8-3.645c3.301 0 6.466 1.311 8.8 3.645s3.645 5.499 3.645 8.8c-0.003 2.188-0.588 4.336-1.695 6.222z"></path>
</symbol>
<symbol id="icon-logo" viewBox="0 0 71 32">
<path fill="#275ba8" style="fill: var(--color3, #275ba8)" d="M25.923 0.518v31.077l-0.37-0.040c2.044 0.27 4.115 0.455 6.369 0.558v-11.279l9.32 11.154c2.475-0.173 4.84-0.471 7.111-0.863l-13.126-15.671 12.249-14.605c-2.287-0.376-4.699-0.643-7.174-0.784l-8.38 10.009v-10.071c-2.052 0.094-4.057 0.267-5.999 0.518zM51.797 12.864h11.89c-2.96-3.091-10.103-5.522-19.125-6.51l4.292-5.271c13.048 2.401 22.258 8.189 22.258 14.966 0 6.636-8.802 12.331-21.397 14.809l-4.245-5.208c8.959-1.082 15.93-3.624 18.561-6.793h-12.233v-5.993zM24.701 31.423v-5.883c-10.98-1.491-18.749-5.177-18.749-9.491 0-4.299 7.77-7.984 18.749-9.476v-5.882c-14.332 2.071-24.701 8.173-24.701 15.357 0 7.201 10.369 13.303 24.701 15.375z"></path>
</symbol>
</defs>
</svg>
