<svg aria-hidden="true" style="position:absolute;width:0;height:0;overflow:hidden" xmlns="http://www.w3.org/2000/svg"><defs><symbol id="icon-bank" viewBox="0 0 32 32"><path fill="#21a038" style="fill:var(--color1, #21a038)" d="M21.373 6.32c.328.43.606.897.828 1.392l-6.292 4.701-2.63-1.671v-2.01l2.63 1.671 5.464-4.083z"/><path style="fill:var(--color2, #000)" d="M10.596 10.6c0-.09.002-.18.007-.269l-1.594-.079a7.06 7.06 0 0 0 .516 3.028c.347.849.856 1.62 1.498 2.269l1.13-1.145c-.494-.499-.886-1.092-1.153-1.744s-.405-1.353-.404-2.06zM15.908 5.217c.089 0 .177.003.265.008l.08-1.616a6.807 6.807 0 0 0-2.989.523c-.838.352-1.6.868-2.24 1.519l1.13 1.146c.492-.501 1.077-.898 1.721-1.169s1.335-.41 2.033-.41zM15.908 15.983c-.089 0-.177 0-.266-.007l-.08 1.615a6.804 6.804 0 0 0 2.989-.523 6.872 6.872 0 0 0 2.239-1.519l-1.128-1.145c-.492.501-1.077.898-1.721 1.169s-1.335.41-2.032.41z"/><path style="fill:var(--color2, #000)" d="m18.902 6.156 1.343-1.003A6.822 6.822 0 0 0 15.906 3.6v1.617a5.238 5.238 0 0 1 2.996.939z"/><path fill="#21a038" style="fill:var(--color1, #21a038)" d="M22.815 10.6a7.118 7.118 0 0 0-.108-1.254l-1.487 1.11v.144c0 .752-.155 1.496-.457 2.183s-.742 1.303-1.293 1.806l1.072 1.201c.717-.656 1.289-1.456 1.681-2.351s.593-1.862.592-2.84z"/><path style="fill:var(--color2, #000)" d="M15.908 15.983c-.742 0-1.476-.157-2.155-.463s-1.286-.752-1.783-1.31l-1.185 1.086c.647.726 1.437 1.307 2.319 1.704s1.837.601 2.803.6v-1.617zM12.346 6.61l-1.072-1.201c-.717.655-1.29 1.456-1.681 2.351S8.999 9.622 9 10.6h1.596c0-.752.155-1.496.457-2.183s.742-1.303 1.293-1.806z"/><path fill="#21a038" style="fill:var(--color1, #21a038)" d="m21.01 22.573 1.683-1.242H17.06v7.466h5.633v-1.242h-4.026v-1.912h3.434v-1.242h-3.434v-1.826h2.343zM13.27 24.239h-1.956v-1.667h3.121l1.682-1.246H9.708v7.466h3.355c1.881 0 2.961-.854 2.961-2.344 0-1.425-.978-2.209-2.754-2.209zm-.279 3.311h-1.676v-2.069h1.676c1.017 0 1.494.347 1.494 1.034s-.508 1.034-1.494 1.034zM26.834 21.33h-3.066v7.466h1.607v-2.115h1.459c1.956 0 3.166-1.031 3.166-2.679s-1.21-2.671-3.166-2.671zm-.034 4.107h-1.425v-2.864H26.8c1.029 0 1.597.509 1.597 1.433s-.568 1.432-1.597 1.432zM7.296 27.034a2.8 2.8 0 0 1-1.352.339c-1.413 0-2.438-1.011-2.438-2.402s1.025-2.405 2.438-2.405a2.382 2.382 0 0 1 1.424.442l1.124-.83-.076-.054c-.656-.578-1.532-.884-2.535-.884-1.088 0-2.074.367-2.779 1.034A3.605 3.605 0 0 0 2 24.932a3.725 3.725 0 0 0 1.096 2.697c.708.694 1.692 1.076 2.772 1.076 1.129 0 2.115-.394 2.783-1.112l-1.006-.751-.348.191z"/></symbol><symbol id="icon-candle" viewBox="0 0 32 32"><path fill="#332041" style="fill:var(--color3, #332041)" d="M7.929 17.728c0-1.189.911-2.024 2.152-2.024.756 0 1.353.276 1.731.775l-.82.736c-.228-.289-.498-.452-.846-.452-.541 0-.906.375-.906.969 0 .59.365.969.906.969.348 0 .618-.168.846-.452l.82.736c-.382.5-.975.775-1.731.775-1.241-.004-2.152-.84-2.152-2.033zM15.842 18.542c0 .685-.563 1.124-1.572 1.124h-2.062v-3.872h1.959c.953 0 1.508.37 1.508 1.012 0 .37-.18.659-.498.831.421.155.666.457.666.904zm-2.358-1.262h.55c.219 0 .318-.095.318-.284s-.099-.293-.318-.293h-.55v.577zm1.044 1.163c0-.198-.103-.297-.318-.297h-.722v.607h.722c.215 0 .318-.112.318-.31zM19.514 18.679v.986h-3.213v-3.872h3.14v.986h-1.86v.452h1.632v.939h-1.632v.508h1.933zM23.582 15.794v3.872h-1.28v-1.24a2.405 2.405 0 0 1-.7.116c-1.138 0-1.74-.547-1.74-1.58v-1.167h1.28v1.025c0 .469.206.693.623.693.21 0 .391-.026.537-.09v-1.628h1.28zM26.985 18.99H25.52l-.258.676h-1.323l1.688-3.872h1.28l1.688 3.872h-1.344l-.266-.676zm-.356-.939-.374-.973-.374.973h.747zM11.244 21.03v3.604h-1.189v-2.661H8.961v2.661H7.772V21.03h3.472zM14.418 24.004h-1.365l-.24.63h-1.23l1.569-3.604h1.189l1.569 3.604h-1.252l-.24-.63zm-.334-.875-.348-.907-.348.907h.696zM19.451 24.634l-.009-1.641-.782 1.319h-.534l-.782-1.26v1.587h-1.103v-3.604h.995l1.171 1.918 1.139-1.918h.995l.009 3.604h-1.099v-.005zM24.338 21.03v3.604h-1.189v-.852h-.326l-.547.852H21.01l.71-1.029c-.461-.218-.723-.626-.723-1.179 0-.861.642-1.396 1.664-1.396h1.677zm-2.125 1.374c0 .304.158.458.461.458h.47v-.898h-.47c-.307.005-.461.145-.461.44zM28.029 21.973h-1.053v2.661h-1.189v-2.661h-1.053v-.943h3.296v.943zM28.433 21.03h1.189v1.872l1.239-1.872H32v3.604h-1.189v-1.868l-1.23 1.868h-1.144V21.03h-.005z"/><path fill="#e56216" style="fill:var(--color4, #e56216)" d="M7.122 15.706v7.614H7.12v1.309h-.237c-3.793 0-6.882-.549-6.882-1.224 0-.62 2.602-1.125 5.962-1.204l1.159-6.494z"/><path fill="#e56216" style="fill:var(--color4, #e56216)" d="m7.065 7.204.003-.004v.007c.371.397 2.749 2.953 4.529 6.566.194.399.31.729.382 1.1h-3.79c-.325-.562-.819-.945-1.064-1.069-.247.164-3.196 2.153-1.679 6.537 0 0-4.787-2.62-2.843-6.564 1.779-3.618 4.089-6.174 4.459-6.57V7.2l.003.004z"/></symbol><symbol id="icon-eagle" viewBox="0 0 32 32"><path fill="#231f20" opacity=".7" style="fill:var(--color5, #231f20)" d="m28.256 7.424-.16.224c.096-.64-.032-1.536-.192-2.048-.224.832-.64 1.568-1.216 2.272l-.032-.416c-.672 1.056-1.504 1.92-2.432 2.336 0-.16-.032-.352-.096-.48-1.216 1.6-4.16 1.216-3.84 4.448.672-.096.992.576.416 1.216-.256 0-.512-.096-.736-.224l.128-.192-.512-.256c.128-.032.256-.096.384-.16-.768-.384-.512-1.12-1.408-1.504a1.968 1.968 0 0 1-.384-.608c-.032-.16-.064-.352-.096-.544 0-.384 0-.608.096-.768l.064.096c.224-.512.512-.896.896-1.12 1.056.032 1.664-.032 1.856-.672-.064.032-.096.032-.128.032-.032-.064-.064-.096-.096-.128.256-.096.64.064.736.064-.032-.32-.16-.416-.224-.544l.352-.256c.896.288 1.664-.384 2.208-.096l.192-.672c-.8-.384-1.28.128-1.952.128.192-.416.224-.8.064-1.184l-.704-.224c-.864.256-.832 1.056-.512 1.6-.192.192-.384.288-.512.352l-.224.032s-.032-.288-.416-.384v-.192c.48-.384.512-.768.416-.992s-.352-.352-.576-.288l-.32.096-.032-.064c.032-.032.032-.064.032-.096a.244.244 0 0 0-.064-.16h.032l-.032-.128.128.032v-.448l-.128.032.032-.128h-.448l.032.128-.128-.032v.448l.128-.032-.128.16h.064a.244.244 0 0 0-.064.16c0 .032 0 .096.032.128l-.032.064-.32-.096a.467.467 0 0 0-.576.288c-.096.224-.064.576.416.992v.256h-.352a1.656 1.656 0 0 1-.8-1.088.99.99 0 0 0 .608-.288v-.672c1.024-.768 1.312-1.792.416-2.24-.512-.256-1.152-.032-1.472.224a.57.57 0 0 0-.256-.224.39.39 0 0 0-.128-.288h.064l-.064-.224.224.064v-.704l-.224.064.064-.224h-.704l.064.224-.224-.064v.704l.224-.064-.064.224h.064a.406.406 0 0 0-.128.288v.032c-.064.032-.16.128-.224.192-.32-.256-.96-.48-1.44-.224-.896.448-.608 1.472.416 2.24v.672c.16.16.384.256.608.288-.096.448-.416.832-.8 1.088h-.352v-.288c.48-.384.512-.768.416-.992s-.352-.352-.576-.288l-.32.096-.032-.064c.032-.032.032-.064.032-.096a.244.244 0 0 0-.064-.16h.032l-.032-.128.128.032v-.448l-.128.032.032-.128H12.8l.032.128-.128-.032v.448l.128-.032v.128h.064a.244.244 0 0 0-.064.16c0 .032 0 .096.032.128l-.032.064-.32-.096a.467.467 0 0 0-.576.288c-.096.224-.064.576.416.992v.192c-.384.096-.416.416-.416.416h-.16a2.887 2.887 0 0 1-.608-.448c.32-.576.32-1.28-.512-1.536l-.736.16c-.16.384-.128.736.064 1.152-.672 0-1.152-.512-1.952-.128l.192.672c.544-.288 1.312.384 2.208.096l.352.256c-.128.16-.256.32-.288.608.224-.128.448-.16.8-.096-.128 0-.16.064-.16.096a.1.1 0 0 0 .064.032c-.032 0-.128-.032-.224-.032.192.608.832.672 1.888.64.384.192.64.576.896 1.12l.064-.096c.064.192.096.384.096.768 0 .224-.032.384-.096.544a5.034 5.034 0 0 1-.384.608c-.896.384-.64 1.12-1.408 1.472.128.096.224.16.384.16l-.512.256.128.192c-.224.128-.448.224-.736.224-.608-.64-.288-1.28.416-1.216.32-3.232-2.624-2.816-3.84-4.448-.032.128-.064.32-.096.48-.928-.416-1.76-1.28-2.432-2.336l-.032.416a7.452 7.452 0 0 1-1.216-2.272c-.16.512-.288 1.408-.192 2.048l-.16-.224c-.32 1.216-.288 2.016.384 3.072.096.672.384 1.344.704 1.856-.192-.032-.32-.064-.512-.064.352.672.768 1.312 1.152 1.728l-.544.16c.48.736 1.024 1.216 1.664 1.632-.288.064-.416.16-.64.32.416.448.768.672 1.344.832-.448.16-.64.352-.768.704.576.192 1.216.32 1.856.288-.384.224-.736.48-.928.832l-.128-.064c-.064-.032-.096-.032-.16-.032-.128 0-.288.096-.32.224 0 .032-.032.064-.032.064v.064c-.032.032-.096.064-.128.096l-.16-.064c-.064-.032-.128-.032-.192-.032-.16 0-.32.096-.384.256-.096.224 0 .448.192.576l.128.064h.032v.16l-.032.064c0 .032-.032.032-.032.064-.032.096-.032.192 0 .288s.096.16.192.224l.768.384.032.032c-.32.384-.704.608-1.152.608h-.224l-.096-.064h-.032a2.034 2.034 0 0 1-.576-.192l-.224-.128.064.256c.128.608.672 1.216 1.504 1.76.8.48 1.664.768 2.4.768.384 0 .704-.096.928-.256l.224-.16-.256-.064a1.913 1.913 0 0 1-.512-.256l-.128-.032-.096-.096c-.448-.416-.448-1.024-.32-1.472h.032l.576.288.032-.064.928.448c-.032 1.44-.48 2.336-1.312 3.264H8.96c-.128.032-.224.16-.256.288l-.096.096h-.032a.336.336 0 0 0-.288-.16c-.032 0-.064 0-.096.032l-.16.064c-.096.032-.16.096-.192.16s-.032.128-.032.224c-.032 0-.096.032-.128.032-.064-.128-.192-.224-.32-.224-.032 0-.064 0-.128.032l-.096.032c-.192.064-.288.224-.224.416-.416.128-.832.288-1.216.384.064.992.384 1.824 1.024 2.592.992-.48 1.952-.96 2.88-1.408a.244.244 0 0 0 .16.064c.032 0 .064 0 .096-.032l.128-.032c.16-.064.352-.224.448-.384 1.344-.64 2.592-1.216 3.68-1.696.032.384.064.736.192.992.256-.096.48-.16.704-.352 0 .128.064.256.096.416l-.48.512.32.32.48-.448c.064.352.448.864.672.992.16-.128.576-.672.672-.992l.48.448.32-.32-.48-.512a.886.886 0 0 0 .096-.416 2.9 2.9 0 0 0 .704.352c.096-.256.16-.576.192-.992l.128.064.064-.064 2.304 1.12.192.096.064.096.032.032h.032l.32.16.096.032c.096.16.352.576.8.544.096 0 .16-.032.224-.064l.448.224.032-.064 1.184.544-.032.064.704.352.032-.064.352.16c-.096 0-.032 0 0 0 .128 0 .288-.096.32-.224 0-.032.032-.064.032-.064v-.064c.032-.032.096-.032.128-.096h.032l.192.096c.064.032.128.032.192.032.16 0 .32-.096.384-.256.096-.224 0-.448-.192-.576l-.16-.096v-.16l.032-.032c.032-.032.032-.032.032-.064.032-.096.032-.192 0-.288s-.128-.096-.192-.128l-.384-.192.032-.064-.704-.352.032-.064c.064-.16-.064-.352-.16-.384l-.16-.064c-.16-.064-.352 0-.416.16l-.032.064-.128-.064.032-.096c.064-.16 0-.352-.192-.448l-.16-.064a.428.428 0 0 0-.288.032c-.96-1.024-1.472-1.888-1.536-3.008a97.4 97.4 0 0 1 4.992-1.76 8.281 8.281 0 0 0-1.024-2.592l-.448.256-.384-.736c-.192.128-.384.224-.608.352a2.842 2.842 0 0 0-.704-.512 5.022 5.022 0 0 0 1.856-.288c-.16-.32-.352-.544-.768-.704.576-.16.96-.384 1.344-.832-.224-.16-.352-.256-.64-.32.64-.416 1.152-.896 1.664-1.632l-.544-.16c.384-.416.8-1.056 1.152-1.728-.192 0-.32 0-.512.064.352-.48.608-1.184.704-1.856.672-1.12.704-1.888.384-3.104zM18.944 21.44c-.032.032-.096.032-.128.064l.032-.224.096.16zM15.776 6.912h.448c.192.736.64 1.248 1.28 1.664 0 0-.416.608-1.152.864.064.096.096.096.192.16-.256.224-.544.768-.544.768s-.288-.544-.544-.768c.064-.064.128-.064.192-.16-.736-.256-1.152-.864-1.152-.864.64-.416 1.12-.928 1.28-1.664zm-2.592 14.56-.128-.032.096-.16.032.192zm-4.896-2.368c.256-.032.512-.064.736-.128a1.208 1.208 0 0 0-.32.384l-.448-.192.032-.064zm2.464 6.208c.448-.512.864-1.056 1.12-2.08l1.184.544.192.096.064.096.032.032h.032l.16.096-1.12.544c-.544.192-1.152.448-1.664.672zm10.528.032-1.376-.64-.192-.096-.064-.096-.032-.032h-.032l-.672-.32c.384-.16.832-.32 1.28-.512.256.64.608 1.216 1.088 1.696zm1.856-6.208-.192-.192c.096.032.224.064.352.096-.064.032-.096.064-.16.096z"/><path fill="#fcd015" style="fill:var(--color6, #fcd015)" d="M11.968 8.32c-.288-.032-.608-.032-.8.032-.256.064-.448.192-.544.512.8-.224.864.224 1.6.384-.224.096-.8.096-1.12-.096.224.352.512.448 1.568.416-.352-.288-.16-.928-.704-1.248z"/><path fill="#fcd015" style="fill:var(--color6, #fcd015)" d="M11.264 9.056c.192.032.16.16.48.16-.064-.064-.352-.288-.48-.16zM19.968 8.32c.288-.032.608-.032.8.032.256.064.448.192.544.512-.8-.224-.864.224-1.6.384.224.096.8.096 1.12-.096-.224.352-.512.448-1.568.416.352-.288.192-.928.704-1.248z"/><path fill="#fcd015" style="fill:var(--color6, #fcd015)" d="M20.704 9.056c-.192.032-.16.16-.48.16.064-.064.352-.288.48-.16z"/><path fill="#221f1f" style="fill:var(--color7, #221f1f)" d="m15.968 23.2.896 1.824-.768.32-.864-1.856.736-.288zM15.136 27.392l-.384.384.128.128.352-.352c0-.064-.064-.128-.096-.16zM16.896 27.392a.25.25 0 0 1-.128.128l.352.352.128-.128-.352-.352z"/><path fill="#ffc112" style="fill:var(--color8, #ffc112)" d="M12.384 7.584v.192c.48-.032.864.032 1.312.064v-.256a4.505 4.505 0 0 0-1.312 0zM12.448 6.528l-.128-.096c-.096 0-.192.064-.256.16-.288.352.096.736.288.896h.064c.096 0 .224-.032.32-.032 0-.384-.064-.736-.288-.928zM13.76 6.432l-.128.096c-.224.192-.256.544-.288.928.096 0 .224.032.32.032h.064c.192-.16.576-.544.288-.896a.264.264 0 0 0-.256-.16zM13.056 6.368c.071 0 .128-.057.128-.128s-.057-.128-.128-.128c-.071 0-.128.057-.128.128s.057.128.128.128z"/><path fill="#ffc112" style="fill:var(--color8, #ffc112)" d="M12.832 7.424h.448c0-.416.064-.8.32-.992l-.32.096-.064-.096c-.032.032-.096.032-.128.032-.064 0-.096-.032-.128-.032l-.064.096-.32-.096c.192.224.256.608.256.992zM12.928 5.984h.224l-.032-.128.16.032v-.224l-.16.032.032-.128h-.224l.064.128-.16-.032v.224l.16-.032-.064.128zM19.36 7.552h-.032a3.342 3.342 0 0 0-.8 0h-.032c-.064 0-.128 0-.192.032v.256c.416 0 .8-.096 1.28-.064v-.192c-.096-.032-.16-.032-.224-.032zM19.904 6.56c-.064-.096-.16-.128-.256-.16l-.128.128c-.224.192-.256.544-.288.928.096 0 .224.032.32.032h.064c.192-.16.576-.544.288-.928zM18.336 6.528l-.128-.096c-.096 0-.192.032-.288.16-.288.352.096.736.288.896h.064c.096 0 .224-.032.32-.032 0-.384-.032-.736-.256-.928zM18.912 6.368c.071 0 .128-.057.128-.128s-.057-.128-.128-.128c-.071 0-.128.057-.128.128s.057.128.128.128z"/><path fill="#ffc112" style="fill:var(--color8, #ffc112)" d="m18.72 6.56-.32-.096c.256.192.32.576.32.992h.448c0-.416.064-.8.32-.992l-.32.096-.064-.096c-.032.032-.096.032-.128.032-.064 0-.096-.032-.128-.032l-.128.096zM18.816 5.984h.224l-.064-.128.16.032v-.224l-.16.032.064-.128h-.224l.032.128-.16-.032v.224l.16-.032-.032.128zM14.144 4.352v.192l.16.064v-.16l-.16-.096zM15.968 5.408c-.864 0-1.568.224-1.568.48v.416c.256-.256.928-.352 1.568-.352s1.28.128 1.568.352v-.416c0-.256-.704-.48-1.568-.48zM16.768 4.544c.128-.544.576-.832 1.024-.928-.48-.096-1.024.128-1.216.448-.096.16-.16.352-.224.512a.624.624 0 0 1 .416-.032zM15.168 4.544c.16-.032.288-.032.416.032-.064-.192-.128-.384-.224-.544-.192-.288-.736-.544-1.216-.448.448.128.896.416 1.024.96z"/><path fill="#ffc112" style="fill:var(--color8, #ffc112)" d="M14.464 6.432c.096.096.256.192.48.256.032-.16.032-.32.064-.512-.256.064-.448.16-.544.256zM16.064 6.048h-.192c0 .256-.032.512-.096.736h.384c-.032-.224-.064-.448-.096-.736zM16.96 6.176c0 .192.032.352.064.512.224-.064.384-.16.48-.256-.096-.096-.288-.192-.544-.256zM15.968 3.872a.288.288 0 1 0 0-.576.288.288 0 0 0 0 .576zM15.776 3.168h.352l-.096-.288.288.096v-.352l-.288.096.096-.288h-.352l.128.288-.32-.096v.352l.32-.096-.128.288zM17.664 4.608l.16-.064v-.192l-.128.096-.032.16z"/><path fill="#ffc112" style="fill:var(--color8, #ffc112)" d="M18.336 3.968c-.064-.128-.16-.192-.288-.256-.48.032-1.024.288-1.152.928v.064l-.064-.032a.576.576 0 0 0-.512.064c-.032.128-.064.224-.064.288-.032.128-.16.192-.256.192s-.224-.096-.256-.192c0-.032-.032-.128-.064-.256-.128-.096-.32-.096-.512-.064l-.064.032v-.064c-.128-.64-.64-.896-1.152-.928a2.07 2.07 0 0 0-.288.256c-.448.672.416 1.472.736 1.728.224-.288.928-.416 1.6-.416.704 0 1.408.16 1.6.416.288-.288 1.152-1.088.736-1.76zm-4.256.672-.064-.032V4.16l.192.096.16.064.064.032V4.8l-.192-.096-.16-.064zm.288.768c-.064 0-.096-.032-.096-.096s.032-.096.096-.096.096.032.096.096c0 .032-.032.096-.096.096zm.48-.192c-.064 0-.096-.032-.096-.096s.032-.096.096-.096.096.032.096.096c0 .032-.064.096-.096.096zm.48-.128c-.064 0-.096-.032-.096-.096s.032-.096.096-.096.096.032.096.096-.032.096-.096.096zm1.312 0c-.064 0-.096-.032-.096-.096s.032-.096.096-.096.096.032.096.096-.064.096-.096.096zm.48.128c-.064 0-.096-.032-.096-.096s.032-.096.096-.096.096.032.096.096c0 .032-.032.096-.096.096zm.48.192c-.064 0-.096-.032-.096-.096s.032-.096.096-.096.096.032.096.096c0 .032-.032.096-.096.096zm-.064-.608v-.448l.064-.032.16-.064.192-.096v.448l-.064.032-.16.064-.192.096z"/><path fill="#ffc112" style="fill:var(--color8, #ffc112)" d="M15.968 5.088c.088 0 .16-.072.16-.16s-.072-.16-.16-.16-.16.072-.16.16c0 .088.072.16.16.16zM15.776 4.704c.064-.064.128-.064.192-.064s.16.032.192.064c.032-.192.128-.48.288-.736 0 0 0-.032.032-.032 0-.096-.064-.16-.16-.224a.432.432 0 0 1-.384.256.416.416 0 0 1-.384-.256.216.216 0 0 0-.128.192c0 .032.032.032.032.064.192.288.288.544.32.736z"/><path fill="#e0e0e0" style="fill:var(--color9, #e0e0e0)" d="M24.832 18.368c-3.168 1.696-5.952 3.264-8.8 4.672l.064.096v.032c2.88-1.248 5.92-2.624 9.056-4.192a2.213 2.213 0 0 0-.32-.608zM15.136 23.552l-.032-.064c-.64.32-1.312.608-1.952.896.64-.256 1.312-.512 1.984-.832zM25.6 18.912a199.055 199.055 0 0 1-9.44 4.384l.736 1.536c3.2-1.344 6.464-2.624 9.6-3.68-.128-.8-.448-1.536-.896-2.24zM9.504 25.92l.16.48c.032.096-.064.192-.064.32.032.448-.256.768-.256.768l-.16.128-.064-.192-.416-1.216c0 .032-.032.032-.064.032l.256.736c.096.32-.064.768-.096.768l-.064.128-.128-.032s-.32-.224-.48-.64c-.032-.064-.096-.064-.128-.128l-.16-.512c-.032 0-.064.032-.128.032l.448 1.344h-.192c-.032 0-.384 0-.672-.416-.032-.064-.192-.032-.224-.128l-.16-.512c-.384.128-.736.256-1.12.384.128.864.416 1.632.928 2.24.896-.448 1.824-.896 2.784-1.344a.54.54 0 0 1 .064-.16l.384-.64s-.064-.192-.032-.416c.288.064.512.192.608.384a.547.547 0 0 1-.032.384c1.76-.832 3.584-1.632 5.408-2.4L15.2 23.68c-1.888.8-3.808 1.568-5.696 2.24z"/><path fill="#e2e2e2" style="fill:var(--color10, #e2e2e2)" d="M9.12 23.488s-.032 0 0 0a7.545 7.545 0 0 1-.896-.128l.032-.128c.224.064.448.096.704.128-.448-.416-.512-1.024-.352-1.632L7.36 21.12c-.384.544-.896.768-1.504.672.544.576 1.152 1.024 1.888 1.28l-.032.128c-.8-.288-1.472-.768-2.048-1.44-.192-.032-.384-.128-.576-.224.32 1.504 3.488 3.008 4.608 2.208a2.401 2.401 0 0 1-.576-.256z"/><path fill="#a5a5a5" style="fill:var(--color11, #a5a5a5)" d="m6.592 19.2-.16-.064c-.16-.064-.32 0-.384.128-.064.16 0 .32.128.384l.128.064c.064-.128.16-.192.288-.192a.545.545 0 0 1 0-.32zM26.08 28.48l-.16-.096c-.064.096-.16.192-.288.192a.29.29 0 0 1 0 .32l.192.096c.16.064.32 0 .384-.128s0-.32-.128-.384z"/><path fill="#939393" style="fill:var(--color12, #939393)" d="m24.847 27.11-.867 1.82.462.22.867-1.82-.462-.22zM9.665 19.853l-.867 1.82.462.22.867-1.82-.462-.22zM7.655 18.922l-.867 1.82.462.22.867-1.82-.462-.22zM11.296 20.64l2.08 3.232.32.16a.958.958 0 0 0 .256-.128l-1.856-2.88-.8-.384zM15.04 22.432l.48.736c.128-.064.288-.128.416-.192l-.096-.16-.8-.384zM16.96 24.928l.064.128-.128.064-.096.032.288.48.768.384-.736-1.152a.244.244 0 0 1-.16.064zM18.752 24.192l2.08 3.232.32.16c-.096-.256 0-.448.032-.48l-1.632-2.528-.8-.384zM23.136 26.272l-.128-.032-.576 1.312-.064-.064-.256.544.448.224.256-.544c-.032-.128-.128-.448 0-.704l.32-.736z"/><path fill="#dbdbdb" style="fill:var(--color13, #dbdbdb)" d="m9.504 21.664-.128.224 3.712 1.76-.288-.416-3.296-1.568zM12.192 22.272 9.76 21.088l-.224.448 3.136 1.504-.48-.768zM11.552 21.28l-1.536-.736-.192.448 2.24 1.056-.512-.768zM11.2 20.704l-.032-.032-.992-.48-.096.224 1.344.64-.224-.352zM6.336 20.128l-.032.032c-.064.128 0 .256.128.32l.256.128.096-.224-.32-.16c-.032-.032-.064-.064-.128-.096zM7.509 20.712l-.11.231 1.3.619.11-.231-1.3-.619zM6.432 19.776c-.064.128 0 .256.128.32l.32.16.192-.448-.32-.16c-.128-.032-.288 0-.32.128zM7.767 20.167l-.206.433 1.3.619.206-.433-1.3-.619zM6.72 19.232c-.064.128 0 .256.128.32l.288.128.192-.448-.288-.096c-.128-.064-.256-.032-.32.096zM8.028 19.581l-.206.433 1.3.619.206-.433-1.3-.619zM6.944 18.976c.064 0 .096 0 .16.032l.288.128.096-.224-.256-.128c-.128-.064-.256 0-.32.128.032.032.032.032.032.064zM8.191 19.24l-.11.231 1.3.619.11-.231-1.3-.619zM17.76 25.6l.224.352.032.032 2.528 1.216-.256-.416L17.76 25.6zM22.826 28l-.11.231 1.184.564.11-.231L22.826 28zM15.168 22.848l-.256-.352-.032-.064-2.496-1.184.256.416 2.528 1.184zM25.76 27.616l-.384-.192-.096.224.448.224a.442.442 0 0 1 .128.096l.032-.032c.064-.128 0-.256-.128-.32zM25.12 29.088l-.416-.192-.128.224.352.16c.128.064.256 0 .32-.128 0-.032 0-.032.032-.064-.064.032-.128.032-.16 0zM25.376 28.544l-.416-.192-.192.448.416.192c.128.064.256 0 .32-.128.032-.128 0-.256-.128-.32zM25.664 28l-.448-.224-.192.448.448.224c.128.064.256 0 .32-.128s0-.256-.128-.32zM13.92 23.616l.32.16c.192-.096.384-.16.576-.256l-1.376-.672.48.768zM12.768 21.856l.48.768 1.696.8c.16-.064.288-.128.448-.224l-.096-.16-2.528-1.184zM16.544 25.28l.256.128-.128-.192-.128.064zM18.656 24.256a4.029 4.029 0 0 1-.32.096l.544.256-.224-.352zM19.008 24.832l-.832-.384c-.192.096-.384.16-.608.256l1.92.928-.48-.8zM19.648 25.824l-2.24-1.056c-.064.032-.096.032-.16.064l.352.576 2.496 1.184-.448-.768zM22.144 26.176l.128-.224L19.84 24.8l.256.416 2.048.96zM22.112 26.336l-1.856-.928.48.768 1.376.64c0-.096.032-.192.032-.256-.032-.096-.096-.128-.032-.224zM20.864 26.4l.384.608c.224-.192.544-.16.544-.16l-.096.32.096.192.416.192.096-.16a1.024 1.024 0 0 1-.16-.416l-1.28-.576zM22.048 27.872l.096-.192-.256-.128.16.32zM23.968 26.752l-.128-.064-.128.256.16.064.096-.256zM23.808 27.104l-.128-.064-.064.128c-.032.064-.096 0-.224.256l.192.096.224-.416zM24.32 27.872l.192-.384c-.032.032-.128 0-.16.064-.064.096-.192.224-.224.224l.192.096zM23.648 27.936h-.192l.064-.192.032-.064-.192-.128c-.16.192-.416.352-.416.352l1.152.544.192-.448-.288-.128c-.192.032-.32.064-.352.064z"/><path fill="#d0d2d3" style="fill:var(--color14, #d0d2d3)" d="M16.032 25.856a.929.929 0 1 0 .001 1.857.929.929 0 0 0-.001-1.857zm.224.576c.064 0 .064-.064.032-.096.032-.064.064 0 .064.032 0 0 .064 0 .064.032s-.032.032-.032.096c0 0-.064-.032-.032 0 0 0-.032 0-.032-.032s.032-.032.032-.064-.064-.032-.064-.032c.032.032.032.096-.032.064 0 .032 0 0 0 0zm-.096.32h-.224c.064-.064 0-.224-.128-.224-.032 0-.032.032-.032.032v-.032c0-.064.16-.032.224-.064 0 .032-.032.064-.032.064a.521.521 0 0 1 .096.192c0-.096.032-.16.096-.192-.032 0-.064-.032-.032-.064.064.032.224 0 .224.064v.032s0-.032-.032-.032c-.16 0-.256.16-.16.224zm.096-.16h-.064l.032-.032s.032 0 .032.032zm-.192.384s.032-.032.032 0-.032.032-.032.032L16 26.816h.032s.032-.032.064 0v.064c.032 0 .032 0 .032.032 0-.032-.032-.032-.032-.032-.032.064-.032.064-.032.096zm-.096-.064s0 .032 0 0c0 0-.032 0 0 0l-.032-.032s.032 0 .032.032c0-.032.032-.032.032-.032-.032 0-.064 0-.064-.032l.032-.032v-.032l.096.256h-.096s-.032 0-.032-.032v-.032s.032-.032.032-.064zm-.096-.32h-.064c0-.032 0-.032.032-.032 0 0 .032 0 .032.032zm.32-.288zm-.16-.096.032.032-.032.032L16 26.24l.032-.032zm-.192.096zm0 .064h.064c.032 0 .032 0 .032.032a.069.069 0 0 0 .064-.064l-.032-.032c-.032-.032 0-.064.032-.064l.032.064.032-.064c.032 0 .064.032.032.064l-.032.032c0 .032.032.064.064.064 0-.032 0-.032.032-.032l.032.032.032-.032c.032 0 .032 0 .032.032l-.032.032h-.064c-.064 0-.096-.032-.096-.064H16c0 .032-.032.064-.096.064h-.064s0-.032-.032-.032 0-.032.032-.032zm-.16 0c.032-.032.064-.096.064-.032-.032.032-.032.096.032.096-.064 0-.064-.032-.064-.064 0 0-.064 0-.064.032s.032.032.032.064c0 0 0 .032-.032.032 0-.032-.032-.032-.032 0 .032-.064-.032-.064-.032-.096.032-.032.096 0 .096-.032zm-.224.32c.032 0 .064 0 .032-.032s-.064-.096-.032-.128c0 0 .096.032.064 0-.032-.064-.032-.128 0-.16 0 .032.128.192.256.288 0 0-.032.032-.032.064s.032.064.064.064h.064v.096c0-.032-.064-.064-.096-.064 0 .032-.032.064-.032.096-.032.032-.064.032-.096 0 0 0 .032-.064 0-.032s-.064 0-.096-.032c.032 0 .032-.032 0-.032s-.096 0-.096-.064c0 0 .064-.032.032-.032 0 .064-.032.032-.032-.032zm.896.512c-.032 0-.064 0-.064-.032-.032-.032-.064-.032-.128-.032.032-.032-.032-.064-.064-.032-.032 0-.032.032-.032.064.064 0 .16.064.16.096s0 .032-.032.032c0-.064-.032-.064-.032 0 0 .032-.032.032-.032.064 0-.064-.032-.064-.032 0 0 .032-.032.032-.032.032l-.032-.032c0-.064-.032-.064-.032 0-.032 0-.032-.032-.032-.064 0-.064-.032-.064-.032 0-.032 0-.032-.032-.032-.032.032-.032.096-.096.16-.096 0-.032-.032-.064-.032-.064-.032-.032-.064 0-.064.032-.032 0-.096 0-.096.032h-.032c-.032 0-.032-.032-.032-.032v-.032l-.128-.096h-.032s-.064 0-.064-.032h.032s-.032-.032 0-.032h.064v-.032c.032 0 .032.064.032.064s.032 0 0 .032l.128.128h.032c.032 0 .096 0 .096-.032-.064-.096 0-.16.032-.16v.064c0 .032.032.032.032.032h.032c.032 0 .064.032.064.032s.032-.032.064-.032h.032c.032 0 .032-.032.032-.032v-.064c.064 0 .128.064.032.16l.064.032c0-.032 0-.032.032-.032l.032.032.032-.032c.032 0 .032.032.032.064-.064 0-.096.032-.128.032zm-.032-.16zm.288-.352c0 .032-.032.096-.064.096-.064 0 0 .032.032.032 0 .032-.032.064-.096.064-.032 0-.032.032 0 .032-.032.032-.064.032-.096.032s0 .032 0 .032c-.032.032-.064.032-.096 0s-.032-.064-.032-.096c-.032 0-.064 0-.096.064v-.096h.064c.032 0 .064-.032.064-.064s0-.032-.032-.064c.128-.064.224-.256.256-.288.032.032.032.096 0 .16-.032.032.064 0 .064 0 .032.032 0 .096-.032.128-.032-.032.032-.032.064-.032z"/><path fill="#1fc150" style="fill:var(--color15, #1fc150)" d="M10.496 6.336a3.3 3.3 0 0 0-.512.16c-.288.704.256 1.504.896 1.888.128-.064.384-.192.672-.16-.736-.448-1.344-1.088-1.056-1.888zM21.472 6.336a3.3 3.3 0 0 1 .512.16c.256.704-.256 1.504-.896 1.888-.128-.064-.384-.192-.672-.16.768-.448 1.344-1.088 1.056-1.888zM9.984 7.712c-.544 0-1.28-.544-1.856-.192l.128.448c.608-.256 1.152.384 2.048.16-.128-.16-.224-.288-.32-.416z"/><path fill="#1fc150" style="fill:var(--color15, #1fc150)" d="M10.688 7.328c.064.128.192.256.32.352.32-.416.224-1.248-.384-1.344v.032c-.064.128-.064.256-.096.352.192.16.224.384.16.608zM21.984 7.712c-.096.128-.192.288-.32.384.896.224 1.44-.416 2.048-.16l.128-.448c-.576-.32-1.312.224-1.856.224zM21.28 7.328a.562.562 0 0 1 .16-.608.834.834 0 0 0-.096-.352v-.032c-.608.096-.672.928-.384 1.344.128-.128.256-.224.32-.352zM14.368 8.48c.832-.448 1.344-1.216 1.376-2.432a3.94 3.94 0 0 0-.64.064c0 .8-.256 1.344-.736 1.696.128-.032.224-.064.32-.096l.32-.16-.16.32c-.128.32-.288.512-.48.608zM17.568 8.48a1.279 1.279 0 0 1-.48-.576l-.16-.32.32.16c.096.032.192.064.32.096-.48-.352-.736-.896-.736-1.696a3.598 3.598 0 0 0-.64-.064c.064 1.184.576 1.984 1.376 2.4zM18.368 14.336l-.128-.096v-.352h-.32l-.096-.16a1.99 1.99 0 0 0-1.76-1.088h-.16c-.736 0-1.44.416-1.76 1.088l-.096.16h-.288v.352l-.128.096c-.896.672-1.408 1.696-1.408 2.784s.512 2.112 1.408 2.784l.128.096v.352h.288l.096.16a1.99 1.99 0 0 0 1.76 1.088h.16c.736 0 1.44-.416 1.76-1.088l.096-.16h.32V20l.128-.096c.896-.672 1.408-1.696 1.408-2.784s-.512-2.08-1.408-2.784zm-1.12 5.824h-2.56v-.544h.192v-.288h.128v-.256h.224v-1.728h-.32v-.896h.32v-.16h-.128v-.224h-.128v-.48h.128v-.224h.16v-.16c-.224-.224-.448-.64-.224-.928s.672-.096.672-.096v-.16h-.032l.032-.064-.064.032v-.512l.064.032-.032-.064h.512l-.032.064.064-.032v.512l-.064-.032.032.064h-.032v.16s.48-.192.672.096c.224.32 0 .704-.192.928v.16h.16v.224h.16v.48h-.128v.224h-.128v.16h.32v.896h-.32v1.728h.224v.256h.128v.288h.192v.544z"/><path fill="#ffd400" style="fill:var(--color16, #ffd400)" d="M15.36 15.04h.32c0-.288-.064-.64-.224-.8l-.096-.096c-.096 0-.16.032-.224.128-.192.288.064.64.224.768zM16.704 15.424h-1.472v.128h1.472v-.128zM16.8 15.648h-1.696v.224H16.8v-.224zM16.576 16.224h-1.184v.224h1.184v-.224zM16.544 15.136h-1.152v.192h1.152v-.192zM16.544 15.04c.16-.16.416-.48.224-.736-.064-.096-.128-.128-.224-.128l-.096.096c-.16.128-.224.512-.224.8h.32v-.032zM15.872 13.824h.192l-.032-.128.096.032v-.16l-.096.032.032-.128h-.192l.032.128-.128-.032v.16l.128-.032-.032.128zM15.968 14.144c.071 0 .128-.057.128-.128s-.057-.128-.128-.128c-.071 0-.128.057-.128.128s.057.128.128.128z"/><path fill="#ffd400" style="fill:var(--color16, #ffd400)" d="M15.776 15.04h.352c0-.32.064-.704.256-.864l-.256.096-.032-.096c-.032.032-.064.032-.128.032-.032 0-.096 0-.128-.032l-.032.096-.256-.096c.192.16.224.544.224.864zM16.704 16h-1.472v.128h1.472V16zM16.768 19.2h-1.632v.16h1.632v-.16zM16.928 19.424h-1.92v.192h1.92v-.192zM17.12 19.712h-2.304V20h2.304v-.288zM16.576 19.104V17.28h-1.184v1.792h1.184v.032zm-.288-1.632h.096v1.376h-.096v-1.376zm-.352 0h.096v1.376h-.096v-1.376zm-.352 0h.096v1.376h-.096v-1.376zM15.616 16.896h.032v-.064l-.032.064z"/><path fill="#ffd400" style="fill:var(--color16, #ffd400)" d="M15.04 16.544v.64h1.824v-.64H15.04zm.352.48c-.032 0-.064 0-.096-.032v-.064h.032l.032.032h.032c.032 0 .064 0 .064-.032s0-.032-.064-.032h-.032c.032 0 .032 0 .032-.032s-.032-.032-.032-.032h-.032v.032h-.032V16.8c.032 0 .064-.032.096-.032.064 0 .096.032.096.064s0 .064-.032.064c.032 0 .032.032.032.064s-.064.064-.096.064zm.416-.032h-.128v-.032h.032l-.032-.032h-.096v.032h.032v.032h-.096v-.032h.032l.096-.224h.032l.128.256zm.288.032H16l-.096-.128v.064h.032v.032h-.128v-.032h.032v-.192h-.032v-.032h.128v.032h-.032v.096l.064-.096v-.032h.096v.032h-.032l-.064.064.096.128.032.064c0-.032 0-.032 0 0zm.128 0c-.096 0-.128-.064-.128-.128 0-.096.032-.128.128-.128s.128.064.128.128a.138.138 0 0 1-.128.128zm.416 0h-.128v-.032h.032v-.096h-.096v.064h.032v.032h-.128v-.032h.032v-.192h-.032v-.032h.128v.032h-.032v.064h.096v-.064h-.032v-.032h.128v.032h-.032v.192l.032.064c0-.032 0-.032 0 0z"/><path fill="#ffd400" style="fill:var(--color16, #ffd400)" d="M16.224 16.768c-.032 0-.064.032-.064.096s.032.096.064.096.064-.064.064-.096c-.032-.032-.032-.096-.064-.096z"/><path fill="#ffe000" style="fill:var(--color17, #ffe000)" d="M23.168 26.144c.032 0 .032 0 0 0-.032-.096-.064-.128-.128-.192 0 .032.032.096 0 .128l.128.064zM14.208 26.144c0 .288.032.576.096.864.224-.096.448-.192.64-.352a.998.998 0 0 1 .512-.768c.032-.096.064-.224.096-.32l-1.344.576zM15.936 25.376l-.224.096c-.032.096-.064.224-.096.32.128-.032.256-.064.384-.064s.256.032.384.064l-.096-.384-.288.128-.064-.16zM16.576 25.856c.288.16.48.448.512.768.192.16.416.288.64.352.064-.32.128-.608.096-.864l-1.376-.672c.032.16.064.288.128.416zM15.552 27.744c.096.224.256.544.448.704.192-.16.384-.48.48-.704-.16.16-.736.16-.928 0zM10.016 27.072l.128.608-.16-.224-.32.544c-.096.128-.032.224.096.16l.128-.032a.681.681 0 0 0 .384-.352l.064-.096c.288-.48-.32-.608-.32-.608zM7.52 27.296l.288-.032-.256-.768c-.032-.128-.16-.192-.288-.16l-.096.032c-.128.032-.192.16-.16.288l.16.512c.032.064.192.032.224.128.224.416.576.416.576.416l-.096-.32-.352-.096zM9.536 26.368l-.128-.416c-.032-.128-.16-.192-.288-.16l-.096.032c-.128.032-.192.16-.16.288l.224.704.32-.288-.256.448.032.064.096.32s.288-.384.224-.704c-.064-.096.064-.16.032-.288zM8.48 26.208a.218.218 0 0 0-.256-.128l-.16.064a.218.218 0 0 0-.128.256l.192.576.448.224h-.288c.064.288.224.416.416.544 0 0 .16-.384.064-.672l-.288-.864zM21.92 25.632l.384.192a.4.4 0 0 1 .448-.16l.096.032h.032c-.704-.832-1.152-1.632-1.248-2.656l-1.28.512c.064.192.16.384.256.576l.352-.416.096.096-.384.448.192.288.288-.352.096.096-.32.384a.863.863 0 0 0 .224.256l.288-.32.096.096-.288.352a2 2 0 0 0 .672.576zM9.216 25.664c.096 0 .192.064.256.128l.896-.352c.16-.096.288-.224.416-.352l-.32-.384.096-.096.32.384c.064-.096.128-.16.224-.256l-.416-.416.096-.096.32.416.192-.288-.416-.512.096-.096.384.448c.192-.384.32-.736.352-1.056l-1.312-.608c0 1.216-.416 2.208-1.184 3.136zM4.768 8.608v-.352l.224.288c.192.256.384.48.576.672a3.204 3.204 0 0 1-.256-1.024c-.576-.832-1.056-1.632-1.216-2.24-.352 1.664.096 2.784.832 3.68-.096-.32-.16-.64-.16-1.024zM7.84 14.464c-.032-.032-.032-.064-.064-.096l-.192-.288.32.096a2.8 2.8 0 0 0 .768.096c-.512-.128-1.024-.384-1.376-.96-.896-.416-1.792-1.088-2.368-1.888-.224-.16-.448-.32-.64-.544.384 1.664 2.016 3.104 3.552 3.584z"/><path fill="#ffe000" style="fill:var(--color17, #ffe000)" d="M8.32 13.12a2.386 2.386 0 0 1-1.152-.992c-.672-.352-1.44-.928-1.92-1.76a6.418 6.418 0 0 1-.832-.8C4.48 11.2 5.824 12.448 7.2 13.12c-.032-.032-.032-.064-.064-.128l-.128-.288.288.128c.352.16.704.224 1.024.288zM7.264 10.88c-.032-.096-.032-.192-.064-.288l-.032-.288.224.16c.256.192.512.32.768.448-.224-.192-.416-.512-.448-.96-1.12-.544-1.632-1.216-2.336-2.048.096 1.472.928 2.304 1.888 2.976zM9.632 16.864c.128-.192.288-.352.48-.448-.288.032-.576.032-.864.032-.928 0-1.76-.192-2.464-.544-.224.064-.416.128-.608.256.64.704 1.952.992 3.456.704z"/><path fill="#ffe000" style="fill:var(--color17, #ffe000)" d="M10.624 17.184h-.256c-.224 0-.448-.032-.704-.064l-.192-.032.064-.096a5.892 5.892 0 0 1-1.056.096c-.32 0-.608-.032-.896-.064-.448.128-.768.288-.896.576 1.44.416 2.656.192 3.936-.416zM10.432 16.224H10.4c-.384 0-.864-.064-1.44-.192L8.768 16l.096-.16c.032-.064.096-.128.128-.192-1.408-.064-2.56-.576-3.456-1.536-.16.032-.288.096-.384.096 1.216 1.92 3.2 2.304 5.28 2.016zM9.12 15.52c.064-.064.128-.128.192-.16-.576-.128-1.024-.384-1.312-.736-.64-.16-1.344-.512-1.952-1.024a6.332 6.332 0 0 1-1.12-1.152c-.16-.032-.32-.064-.416-.064.96 1.952 2.432 3.072 4.608 3.136z"/><path fill="#ffe000" style="fill:var(--color17, #ffe000)" d="M8.512 10.976c1.28.576 2.496.864 2.656 2.24-.544-1.792-2.144-1.504-3.84-2.656.064.672.544 1.12 1.28 1.408.928.32 1.856.608 2.208 1.536-.992-1.44-2.528-1.024-3.744-1.952a2.19 2.19 0 0 0 1.824 1.568c.8.192 1.216.32 1.632.928-.864-.896-2.144-.64-3.296-1.12.704 1.632 2.368 1.12 3.328 1.792-.832-.384-1.984-.192-2.688-.416.352.544.928.832 1.568.96.352-.224.736-.224 1.152-.256.16 0 .352-.032.512-.032-.48-.512-.384-1.408.448-1.376.096-2.944-2.624-2.752-3.68-4.032-.096.8.288 1.216.64 1.408zM13.376 8.448c.32.128.992.192 1.376-.608-.288.16-.672.16-.992.128-.448-.032-.896-.128-1.376-.096-.128 0-.352.128-.384.288.832-.16 1.056.16 1.376.288zM15.264 10.272c0 .256 0 .512-.128.704l-.16.256-.064-.288-.096-.288c-.064.192-.128.384-.256.544l-.192.288-.032-.352c0-.064 0-.096-.032-.16a1.081 1.081 0 0 1-.192.384l-.032.064a7.099 7.099 0 0 1-.096.576c.288-.064.64-.448.768-.768.064.192.192.448.32.544.224-.256.288-.576.352-.96.128.192.288.256.576.288.288-.032.448-.128.576-.288.032.384.128.704.352.96.096-.096.256-.352.32-.544.128.288.48.704.768.768-.032-.128-.064-.352-.096-.576l-.032-.032a1.081 1.081 0 0 1-.192-.384c0 .032 0 .096-.032.16l-.064.32-.192-.288c-.128-.16-.192-.352-.256-.544l-.096.288-.064.288-.16-.256c-.128-.192-.128-.448-.128-.704a2.67 2.67 0 0 1-.512.384c-.032.16-.128.32-.224.448-.096-.128-.16-.32-.224-.448-.128-.096-.32-.224-.48-.384z"/><path fill="#ffe000" style="fill:var(--color17, #ffe000)" d="M14.304 8.544c-.544.288-.992.064-1.248-.128-.32-.224-.64-.224-.96-.16.608.384.384 1.088.8 1.28.192.128.64.416.832.928.096-.16.192-.736-.32-1.376.128.064.288.256.288.256.32.192.576.416.736.672.064-.384-.128-.736-.448-1.12.512.608 1.088.64 1.472.512-.448-.032-.928-.48-1.152-.864zm-1.92-.192c.096 0 .288-.032.576.128-.096.096-.32.256-.576-.128z"/><path fill="#ffe000" style="fill:var(--color17, #ffe000)" d="M14.464 9.504c.064.16.096.352.064.576l-.064.352-.192-.288a1.714 1.714 0 0 0-.48-.48c.128.384.096.672.032.864.096.256.16.544.16.8.192-.288.256-.576.256-.896.096.224.16.448.192.704.192-.288.288-.576.32-.896.128.224.224.448.256.672.16-.224.096-.64.064-.992.224.256.576.576.8.672-.128-.352-.384-.672-.64-.928-.032-.032-.48.032-.768-.16zM13.44 12.736c-.8.416-.768 1.216-1.184 1.376.096.032.16.064.256.064.096-.096.16-.224.224-.352.256-.384.544-.864 1.312-1.056 0-.032-.032-.064-.032-.096-.128.032-.224.064-.32.064h-.256zM8.608 12.128c-.64-.256-1.056-.608-1.248-1.056-.64-.384-1.184-.864-1.6-1.472-.32-.288-.576-.608-.864-.96 0 1.632 1.056 2.688 2.176 3.296-.032-.096-.096-.224-.128-.32l-.096-.384.288.224c.48.352.96.512 1.472.672z"/><path fill="#ffe000" style="fill:var(--color17, #ffe000)" d="M4.288 9.6v-.384l.256.288c.224.288.448.48.672.672l-.384-.48a4.61 4.61 0 0 1-.864-1.664l-.192-.384c-.352 1.696.256 2.528.96 3.36A3.045 3.045 0 0 1 4.288 9.6zM10.304 19.52c-.16.096-.32.16-.512.224l.416.192c0-.096.064-.256.096-.416zM11.04 20.448l.128.064.096-.064.224.096v-.576c-.128.16-.288.352-.448.48zM12.16 20.864l.16.064.096.16.256.128a3.763 3.763 0 0 1-.096-.864 3.231 3.231 0 0 1-.416.512zM7.616 18.752l.448.224c.992-.032 1.792-.448 2.592-.96v-.032c0-.288.192-.64.352-.864-.832.448-1.568.704-2.304.8-.512.256-.928.512-1.088.832zM26.976 8.544l.224-.288v.352c0 .384-.064.704-.16 1.024.736-.896 1.184-2.016.832-3.68-.16.608-.64 1.408-1.216 2.24a3.436 3.436 0 0 1-.256 1.024l.576-.672zM24.64 13.344c-.352.576-.864.8-1.376.96.288-.032.576-.032.768-.096l.32-.096-.192.288c-.032.032-.032.064-.064.096 1.536-.48 3.168-1.92 3.52-3.552-.224.192-.448.384-.64.544-.544.8-1.44 1.44-2.336 1.856z"/><path fill="#ffe000" style="fill:var(--color17, #ffe000)" d="M24.768 13.152c1.376-.704 2.72-1.952 2.784-3.552-.256.32-.544.576-.832.8-.48.832-1.28 1.376-1.92 1.76-.224.416-.608.768-1.152.992a5.992 5.992 0 0 0 1.024-.256l.288-.128-.128.288c-.032 0-.032.064-.064.096zM23.776 10.912c.256-.128.512-.256.768-.448l.224-.16-.032.288a.934.934 0 0 1-.064.288c.992-.64 1.792-1.504 1.856-2.944-.672.832-1.184 1.504-2.336 2.048 0 .416-.192.736-.416.928zM22.72 16.448c-.256 0-.544 0-.864-.032.16.096.32.256.48.448 1.504.288 2.816.032 3.456-.672a1.457 1.457 0 0 0-.608-.256 5.938 5.938 0 0 1-2.464.512z"/><path fill="#ffe000" style="fill:var(--color17, #ffe000)" d="M24.384 17.024c-.288.064-.576.064-.896.064-.352 0-.704-.032-1.056-.096l.064.096-.192.032c-.256.064-.48.064-.704.064h-.256c1.248.608 2.496.832 3.904.416-.096-.288-.416-.448-.864-.576zM22.976 15.648c.032.064.096.128.128.192l.096.16-.192.032c-.576.128-1.056.192-1.44.192h-.032c2.048.288 4.064-.096 5.28-1.984-.096-.032-.256-.064-.384-.096-.928.928-2.08 1.44-3.456 1.504z"/><path fill="#ffe000" style="fill:var(--color17, #ffe000)" d="M25.952 13.632A6.044 6.044 0 0 1 24 14.656c-.32.352-.768.608-1.312.736.064.064.128.096.192.16 2.176-.096 3.648-1.216 4.64-3.104-.096 0-.256.032-.416.064-.352.384-.704.768-1.152 1.12z"/><path fill="#ffe000" style="fill:var(--color17, #ffe000)" d="M20.832 14.976c.192.032.352.032.512.032.416.032.8.032 1.152.256.64-.128 1.216-.416 1.568-.96-.704.224-1.824.032-2.688.416.96-.672 2.624-.16 3.296-1.728-1.152.48-2.432.224-3.296 1.12.416-.608.832-.736 1.632-.928 1.152-.192 1.664-.992 1.824-1.568-1.216.928-2.752.512-3.744 1.952.384-.96 1.28-1.248 2.208-1.536.736-.288 1.216-.736 1.28-1.408-1.696 1.152-3.296.864-3.84 2.656.16-1.376 1.408-1.696 2.656-2.24.352-.224.704-.64.64-1.408-1.056 1.248-3.776 1.088-3.68 4.032.896-.096.992.8.48 1.312zM18.592 8.448c.32-.16.544-.448 1.376-.288-.032-.16-.224-.288-.384-.288-.48-.032-.928.064-1.376.096-.32.032-.704.032-.992-.128.384.8 1.056.736 1.376.608zM16.864 9.92c-.032.352-.096.768.064.992.064-.224.16-.48.256-.672.032.32.128.608.32.896.032-.256.096-.48.192-.704 0 .32.064.64.256.896 0-.288.032-.544.16-.8-.064-.192-.096-.48.032-.864-.192.128-.352.32-.48.48l-.192.288-.064-.352c-.032-.192 0-.384.064-.576-.288.16-.736.128-.8.128-.256.256-.48.576-.64.928.288-.096.608-.384.832-.64zM18.528 12.736l-.128.032h-.096c-.096 0-.224-.032-.32-.064 0 .032-.032.064-.032.096.768.16 1.056.64 1.312 1.056.064.128.16.256.224.352.096 0 .16-.032.256-.064-.448-.192-.416-.992-1.216-1.408z"/><path fill="#ffe000" style="fill:var(--color17, #ffe000)" d="M24.896 11.936c1.12-.64 2.176-1.696 2.176-3.296a8.655 8.655 0 0 1-.864.96c-.384.64-.96 1.12-1.568 1.504-.192.448-.608.768-1.216 1.024h-.032c.48-.128.992-.288 1.44-.64l.288-.224-.096.384c-.032.064-.096.16-.128.288z"/><path fill="#ffe000" style="fill:var(--color17, #ffe000)" d="M26.752 10.176c.224-.192.448-.416.672-.672l.256-.288V9.6a3.392 3.392 0 0 1-.416 1.472c.704-.864 1.312-1.664.96-3.36l-.192.384a4.367 4.367 0 0 1-.864 1.664l-.416.416zM24.192 18.56c-.192-.224-.544-.416-.928-.64-.736-.096-1.472-.352-2.304-.8.192.224.352.576.352.864v.032c.704.448 1.408.8 2.24.896a4.1 4.1 0 0 1 .64-.352zM22.048 19.712l-.384-.192c.032.128.032.256.064.352.128-.032.224-.096.32-.16zM20.864 20.384 20.48 20c.032.224.032.416 0 .576l.384-.192zM19.264 21.216c.192-.096.384-.224.608-.32-.16-.192-.32-.352-.448-.544-.032.352-.064.64-.16.864zM22.944 19.232a3.39 3.39 0 0 0-.32-.384c-.512-.16-.96-.448-1.44-.736h-.192c-.288 0-.608-.096-.864-.256 0 .064-.032.096-.032.16.608.704 1.248 1.312 2.112 1.632.256-.16.512-.288.736-.416zM21.6 19.968c0-.16-.032-.32-.096-.512-.544-.32-1.024-.768-1.44-1.28l-.192.576c.256.608.608 1.12 1.12 1.568.192-.128.416-.224.608-.352zM20.32 19.808a3.78 3.78 0 0 1-.512-.928c-.16.32-.352.608-.608.864.192.384.448.736.768 1.088l.384-.192c.032-.224 0-.512-.032-.832zM19.264 20.16a1.297 1.297 0 0 1-.16-.288c-.128.128-.256.256-.416.352v.576l.384.48c.16-.256.224-.64.192-1.12zM18.208 20.832c-.096.128-.16.288-.288.384.096.16.224.352.352.512.096-.064.192-.096.288-.16.064-.16.128-.32.16-.544a.972.972 0 0 1-.16-.224h-.352v.032zM17.824 21.312a2.669 2.669 0 0 1-.672.512l.384.288c.16-.096.352-.16.512-.256 0-.096-.032-.16-.064-.256-.064-.096-.096-.192-.16-.288zM17.344 22.208v-.064a2.242 2.242 0 0 1-.32-.256 2.7 2.7 0 0 1-.768.192c.096.192.192.352.32.512l.768-.384zM16.128 22.08H15.84c-.064.16-.192.32-.256.48l.352.16a.593.593 0 0 0 .064-.224c.032.128.064.224.096.352l.384-.192a5.566 5.566 0 0 1-.352-.576zM14.624 22.176l.224.096.064-.032.512.256c.096-.128.192-.288.256-.416a3.375 3.375 0 0 1-.768-.192c-.064.064-.192.224-.288.288zM14.816 21.824a2.088 2.088 0 0 1-.672-.512c-.064.096-.096.192-.16.256 0 .064-.064.192-.064.224l.608.288c.064-.032.192-.192.288-.256zM13.76 20.832h-.32c-.064.064-.096.16-.16.224 0 .16.032.384.064.48l.416.192c.096-.128.256-.384.32-.512-.128-.128-.224-.256-.32-.384zM13.312 20.704v-.48c-.16-.128-.288-.256-.416-.384-.064.096-.128.224-.192.32-.032.448 0 .896.128 1.152l.064.032c.128-.16.288-.416.384-.576v-.064h.032zM12.192 18.848c-.16.32-.32.64-.544.96-.032.32-.064.608-.032.832l.416.192c.32-.352.576-.704.768-1.088a4.03 4.03 0 0 1-.608-.896zM11.904 18.144c-.448.512-.928.992-1.472 1.312-.064.224-.128.48-.128.672l.64.288c.544-.448.928-1.12 1.184-1.728-.096-.16-.16-.352-.224-.544z"/><path fill="#ffe000" style="fill:var(--color17, #ffe000)" d="M11.872 17.984c0-.032-.032-.096-.032-.128-.288.16-.576.288-.896.288h-.192a7.628 7.628 0 0 1-1.44.736c-.16.192-.384.416-.512.576l.64.32c1.024-.352 1.792-1.024 2.432-1.792zM22.976 15.936c-.832-1.28-1.888-.384-3.168-1.184-.096.064-.224.064-.384.096.352.48.576 1.024.672 1.568.416.64 1.28.736 2.112.576-.288-.48-.672-.64-1.12-.736-.512-.16-.928-.352-1.056-.896.448.928 1.792.8 2.944.576zM21.152 17.984c0-.32-.256-.768-.448-.896a1.042 1.042 0 0 1-.544-.416c.032.16.032.32.032.448 0 .192-.032.416-.064.608.352.192.704.288 1.024.256zM11.232 17.088c-.192.16-.416.576-.448.896.352.032.672-.064 1.024-.288-.032-.192-.032-.384-.032-.576 0-.16 0-.352.032-.512-.128.224-.288.352-.576.48zM10.816 16.256c-.448.096-.832.288-1.12.736.864.16 1.76.064 2.176-.64.096-.544.352-1.056.672-1.504a.682.682 0 0 1-.384-.096c-1.248.8-2.336-.096-3.168 1.184 1.152.256 2.496.384 2.912-.576-.16.544-.576.736-1.088.896zM18.688 14.016c.256.192.48.448.672.672a.939.939 0 0 0 .512-.128c-.864-.16-.704-1.408-2.016-1.664l-.032.032c.128.128.256.288.352.48h.512v.608zM12.64 14.72c.192-.256.416-.48.672-.672v-.608h.448c.096-.192.224-.352.352-.48l-.032-.032c-1.312.288-1.152 1.504-2.016 1.664.192.096.352.128.576.128zM14.144 12.64l.096.192c.128-.128.256-.224.416-.32-.032-.064-.032-.16-.032-.256-.16.192-.32.32-.48.384zM17.376 12.288c0 .096-.032.192-.032.256.16.096.288.192.416.32l.096-.192a1.417 1.417 0 0 1-.48-.384zM15.552 12.192h.128c0-.032-.032-.096-.032-.128-.032.032-.064.096-.096.128zM16.416 12.192c-.032-.032-.064-.096-.096-.16 0 .064-.032.096-.032.128.032.032.096.032.128.032z"/><path fill="#ffe000" style="fill:var(--color17, #ffe000)" d="M17.952 12.128c-.256-.064-.544-.32-.704-.576a1.42 1.42 0 0 1-.256.352l-.096.096-.096-.096c-.192-.224-.288-.512-.352-.8-.128.256-.864.256-.96 0a1.476 1.476 0 0 1-.352.8L15.04 12l-.096-.096c-.096-.064-.16-.192-.256-.352-.192.256-.48.544-.704.576l-.096.032c-.064.16-.16.32-.288.48.352.064.864-.256 1.12-.736 0 .256 0 .416.032.576.192-.096.384-.192.608-.224.128-.16.256-.384.288-.672.064.32.096.48.16.608h.32c.064-.128.096-.32.16-.608.032.288.16.512.288.672.224.064.416.128.608.224.032-.128.032-.288.032-.576.288.48.768.8 1.12.736a1.91 1.91 0 0 1-.288-.48l-.096-.032z"/><path fill="#ffe000" style="fill:var(--color17, #ffe000)" d="M18.112 20.704h.448v-.544c.928-.704 1.536-1.792 1.536-3.04 0-1.216-.608-2.336-1.536-3.04v-.544h-.448a2.31 2.31 0 0 0-2.048-1.248h-.16a2.31 2.31 0 0 0-2.048 1.248h-.416v.544c-.928.704-1.536 1.792-1.536 3.04 0 1.216.608 2.336 1.536 3.04v.544h.416a2.31 2.31 0 0 0 2.048 1.248h.16a2.31 2.31 0 0 0 2.048-1.248zm-2.048 1.056h-.16c-.8 0-1.504-.448-1.888-1.152l-.064-.096H13.6v-.416l-.064-.064c-.928-.704-1.44-1.76-1.44-2.88s.544-2.176 1.44-2.88l.064-.064v-.448h.352l.064-.096c.384-.704 1.088-1.152 1.888-1.152h.16c.8 0 1.504.448 1.888 1.152l.064.096h.352v.416l.064.064c.928.704 1.44 1.76 1.44 2.88s-.544 2.176-1.44 2.88l-.064.064v.416h-.352l-.064.096c-.384.736-1.088 1.184-1.888 1.184zM18.016 8.96c-.32.384-.512.736-.448 1.12.16-.256.384-.48.736-.672 0 0 .16-.224.288-.256-.512.64-.416 1.184-.32 1.376.192-.544.64-.832.832-.928.416-.192.192-.928.8-1.28-.352-.064-.672-.064-.96.16-.256.192-.704.416-1.248.128-.224.352-.704.832-1.12.896.352.064.928.032 1.44-.544zm1.568-.608c-.256.352-.448.192-.576.128.288-.128.448-.096.576-.128zM21.664 27.328l-.192.192.192-.608s-.64.064-.384.608l.032.096c.064.16.224.32.352.384l.096.064c.128.064.192 0 .128-.16l-.224-.576zM24.576 26.56l-.096-.032c-.128-.064-.256 0-.32.128l-.352.736.288.064-.352.064-.128.32s.352.064.608-.352c.064-.096.192-.032.224-.096l.224-.512c.064-.128.032-.256-.096-.32zM22.944 26.144c.064-.128 0-.256-.128-.32l-.096-.064c-.128-.064-.256 0-.32.128l-.192.384c-.064.128.064.192 0 .32-.096.32.16.704.16.704l.128-.32.032-.064-.192-.448.288.288.32-.608zM23.808 26.464c.032-.096 0-.224-.096-.256l-.16-.064c-.096-.032-.224 0-.256.096l-.352.8c-.128.288 0 .704 0 .704.192-.128.352-.256.448-.512l-.256-.032.448-.16.224-.576z"/></symbol></defs></svg>